solid OpenSCAD_Model
  facet normal -1 0 0
    outer loop
      vertex 0 40 0
      vertex 0 23 1
      vertex 0 40 1
    endloop
  endfacet
  facet normal -1 0 0
    outer loop
      vertex 0 23 1
      vertex 0 22 1
      vertex 0 23 9
    endloop
  endfacet
  facet normal -1 0 0
    outer loop
      vertex 0 40 0
      vertex 0 22 1
      vertex 0 23 1
    endloop
  endfacet
  facet normal -1 0 0
    outer loop
      vertex 0 40 0
      vertex 0 18 1
      vertex 0 22 1
    endloop
  endfacet
  facet normal -1 0 0
    outer loop
      vertex 0 18 1
      vertex 0 17 1
      vertex 0 18 9
    endloop
  endfacet
  facet normal -1 0 0
    outer loop
      vertex 0 0 0
      vertex 0 18 1
      vertex 0 40 0
    endloop
  endfacet
  facet normal -1 -0 0
    outer loop
      vertex 0 18 1
      vertex 0 0 0
      vertex 0 17 1
    endloop
  endfacet
  facet normal -1 -0 0
    outer loop
      vertex 0 17 1
      vertex 0 0 0
      vertex 0 0 1
    endloop
  endfacet
  facet normal -1 -0 0
    outer loop
      vertex 0 23 9
      vertex 0 22 1
      vertex 0 22 9
    endloop
  endfacet
  facet normal -1 -0 0
    outer loop
      vertex 0 18 9
      vertex 0 17 1
      vertex 0 17 9
    endloop
  endfacet
  facet normal 0 0 1
    outer loop
      vertex 40 22 1
      vertex 23.5 18 1
      vertex 40 18 1
    endloop
  endfacet
  facet normal 0 0 1
    outer loop
      vertex 23.5 18 1
      vertex 16.5 18 1
      vertex 23.5 17 1
    endloop
  endfacet
  facet normal 0 0 1
    outer loop
      vertex 40 22 1
      vertex 16.5 18 1
      vertex 23.5 18 1
    endloop
  endfacet
  facet normal -0 0 1
    outer loop
      vertex 0 22 1
      vertex 16.5 18 1
      vertex 40 22 1
    endloop
  endfacet
  facet normal 0 0 1
    outer loop
      vertex 16.5 18 1
      vertex 0 22 1
      vertex 0 18 1
    endloop
  endfacet
  facet normal 0 0 1
    outer loop
      vertex 23.5 17 1
      vertex 16.5 18 1
      vertex 16.5 17 1
    endloop
  endfacet
  facet normal -0 0 1
    outer loop
      vertex 0 17 1
      vertex 10 0 1
      vertex 10 17 1
    endloop
  endfacet
  facet normal 0 0 1
    outer loop
      vertex 10 0 1
      vertex 0 17 1
      vertex 0 0 1
    endloop
  endfacet
  facet normal -0 0 1
    outer loop
      vertex 30 17 1
      vertex 40 0 1
      vertex 40 17 1
    endloop
  endfacet
  facet normal 0 0 1
    outer loop
      vertex 40 0 1
      vertex 30 17 1
      vertex 30 0 1
    endloop
  endfacet
  facet normal -0 0 1
    outer loop
      vertex 30 40 1
      vertex 40 23 1
      vertex 40 40 1
    endloop
  endfacet
  facet normal 0 0 1
    outer loop
      vertex 40 23 1
      vertex 30 40 1
      vertex 30 23 1
    endloop
  endfacet
  facet normal -0 0 1
    outer loop
      vertex 0 40 1
      vertex 10 23 1
      vertex 10 40 1
    endloop
  endfacet
  facet normal 0 0 1
    outer loop
      vertex 10 23 1
      vertex 0 40 1
      vertex 0 23 1
    endloop
  endfacet
  facet normal 1 0 0
    outer loop
      vertex 40 18 9
      vertex 40 17 9
      vertex 40 18 1
    endloop
  endfacet
  facet normal 1 0 0
    outer loop
      vertex 40 23 9
      vertex 40 22 9
      vertex 40 23 1
    endloop
  endfacet
  facet normal 1 -0 0
    outer loop
      vertex 40 23 1
      vertex 40 40 0
      vertex 40 40 1
    endloop
  endfacet
  facet normal 1 0 0
    outer loop
      vertex 40 22 1
      vertex 40 23 1
      vertex 40 22 9
    endloop
  endfacet
  facet normal 1 -0 0
    outer loop
      vertex 40 22 1
      vertex 40 40 0
      vertex 40 23 1
    endloop
  endfacet
  facet normal 1 -0 0
    outer loop
      vertex 40 18 1
      vertex 40 40 0
      vertex 40 22 1
    endloop
  endfacet
  facet normal 1 0 0
    outer loop
      vertex 40 17 1
      vertex 40 18 1
      vertex 40 17 9
    endloop
  endfacet
  facet normal 1 0 0
    outer loop
      vertex 40 0 0
      vertex 40 18 1
      vertex 40 17 1
    endloop
  endfacet
  facet normal 1 0 0
    outer loop
      vertex 40 0 0
      vertex 40 17 1
      vertex 40 0 1
    endloop
  endfacet
  facet normal 1 0 0
    outer loop
      vertex 40 18 1
      vertex 40 0 0
      vertex 40 40 0
    endloop
  endfacet
  facet normal 0 1 -0
    outer loop
      vertex 40 40 0
      vertex 30 40 1
      vertex 40 40 1
    endloop
  endfacet
  facet normal 0 1 0
    outer loop
      vertex 30 40 1
      vertex 40 40 0
      vertex 30 40 0
    endloop
  endfacet
  facet normal 0 1 -0
    outer loop
      vertex 10 40 0
      vertex 0 40 1
      vertex 10 40 1
    endloop
  endfacet
  facet normal 0 1 0
    outer loop
      vertex 0 40 1
      vertex 10 40 0
      vertex 0 40 0
    endloop
  endfacet
  facet normal 0 0 -1
    outer loop
      vertex 0 0 0
      vertex 10 17 0
      vertex 10 0 0
    endloop
  endfacet
  facet normal -0 0 -1
    outer loop
      vertex 10 17 0
      vertex 0 0 0
      vertex 10 23 0
    endloop
  endfacet
  facet normal 0 0 -1
    outer loop
      vertex 0 40 0
      vertex 10 23 0
      vertex 0 0 0
    endloop
  endfacet
  facet normal 0 0 -1
    outer loop
      vertex 10 23 0
      vertex 0 40 0
      vertex 10 40 0
    endloop
  endfacet
  facet normal 0 0 -1
    outer loop
      vertex 10 17 0
      vertex 30 23 0
      vertex 30 17 0
    endloop
  endfacet
  facet normal -0 0 -1
    outer loop
      vertex 30 23 0
      vertex 10 17 0
      vertex 10 23 0
    endloop
  endfacet
  facet normal 0 0 -1
    outer loop
      vertex 30 17 0
      vertex 40 0 0
      vertex 30 0 0
    endloop
  endfacet
  facet normal 0 0 -1
    outer loop
      vertex 40 0 0
      vertex 30 17 0
      vertex 40 40 0
    endloop
  endfacet
  facet normal 0 0 -1
    outer loop
      vertex 30 23 0
      vertex 40 40 0
      vertex 30 17 0
    endloop
  endfacet
  facet normal -0 0 -1
    outer loop
      vertex 40 40 0
      vertex 30 23 0
      vertex 30 40 0
    endloop
  endfacet
  facet normal 0 -1 0
    outer loop
      vertex 0 0 0
      vertex 10 0 1
      vertex 0 0 1
    endloop
  endfacet
  facet normal 0 -1 -0
    outer loop
      vertex 10 0 1
      vertex 0 0 0
      vertex 10 0 0
    endloop
  endfacet
  facet normal 0 -1 0
    outer loop
      vertex 30 0 0
      vertex 40 0 1
      vertex 30 0 1
    endloop
  endfacet
  facet normal 0 -1 -0
    outer loop
      vertex 40 0 1
      vertex 30 0 0
      vertex 40 0 0
    endloop
  endfacet
  facet normal 1 -0 0
    outer loop
      vertex 10 0 1
      vertex 10 17 0
      vertex 10 17 1
    endloop
  endfacet
  facet normal 1 0 0
    outer loop
      vertex 10 17 0
      vertex 10 0 1
      vertex 10 0 0
    endloop
  endfacet
  facet normal -1 0 0
    outer loop
      vertex 30 0 0
      vertex 30 17 1
      vertex 30 17 0
    endloop
  endfacet
  facet normal -1 -0 0
    outer loop
      vertex 30 17 1
      vertex 30 0 0
      vertex 30 0 1
    endloop
  endfacet
  facet normal 0 -1 0
    outer loop
      vertex 30 17 1
      vertex 23.5 17 9
      vertex 23.5 17 1
    endloop
  endfacet
  facet normal 0 -1 0
    outer loop
      vertex 23.5 17 9
      vertex 30 17 1
      vertex 40 17 9
    endloop
  endfacet
  facet normal 0 -1 -0
    outer loop
      vertex 40 17 9
      vertex 30 17 1
      vertex 40 17 1
    endloop
  endfacet
  facet normal 0 -1 0
    outer loop
      vertex 10 17 1
      vertex 0 17 9
      vertex 0 17 1
    endloop
  endfacet
  facet normal 0 -1 0
    outer loop
      vertex 0 17 9
      vertex 10 17 1
      vertex 16.5 17 9
    endloop
  endfacet
  facet normal 0 -1 0
    outer loop
      vertex 10 17 1
      vertex 16.5 17 1
      vertex 16.5 17 9
    endloop
  endfacet
  facet normal 0 -1 0
    outer loop
      vertex 10 17 0
      vertex 16.5 17 1
      vertex 10 17 1
    endloop
  endfacet
  facet normal 0 -1 -0
    outer loop
      vertex 16.5 17 1
      vertex 10 17 0
      vertex 23.5 17 1
    endloop
  endfacet
  facet normal 0 -1 0
    outer loop
      vertex 30 17 0
      vertex 23.5 17 1
      vertex 10 17 0
    endloop
  endfacet
  facet normal 0 -1 0
    outer loop
      vertex 23.5 17 1
      vertex 30 17 0
      vertex 30 17 1
    endloop
  endfacet
  facet normal 1 -0 0
    outer loop
      vertex 10 23 1
      vertex 10 40 0
      vertex 10 40 1
    endloop
  endfacet
  facet normal 1 0 0
    outer loop
      vertex 10 40 0
      vertex 10 23 1
      vertex 10 23 0
    endloop
  endfacet
  facet normal -1 0 0
    outer loop
      vertex 30 23 0
      vertex 30 40 1
      vertex 30 40 0
    endloop
  endfacet
  facet normal -1 -0 0
    outer loop
      vertex 30 40 1
      vertex 30 23 0
      vertex 30 23 1
    endloop
  endfacet
  facet normal 0 1 -0
    outer loop
      vertex 30 23 0
      vertex 10 23 1
      vertex 30 23 1
    endloop
  endfacet
  facet normal 0 1 0
    outer loop
      vertex 10 23 1
      vertex 30 23 0
      vertex 10 23 0
    endloop
  endfacet
  facet normal 0 1 0
    outer loop
      vertex 30 23 1
      vertex 40 23 9
      vertex 40 23 1
    endloop
  endfacet
  facet normal 0 1 0
    outer loop
      vertex 40 23 9
      vertex 30 23 1
      vertex 0 23 9
    endloop
  endfacet
  facet normal 0 1 -0
    outer loop
      vertex 10 23 1
      vertex 0 23 9
      vertex 30 23 1
    endloop
  endfacet
  facet normal 0 1 0
    outer loop
      vertex 0 23 9
      vertex 10 23 1
      vertex 0 23 1
    endloop
  endfacet
  facet normal -0 0 1
    outer loop
      vertex 0 18 9
      vertex 16.5 17 9
      vertex 16.5 18 9
    endloop
  endfacet
  facet normal 0 0 1
    outer loop
      vertex 16.5 17 9
      vertex 0 18 9
      vertex 0 17 9
    endloop
  endfacet
  facet normal -0 0 1
    outer loop
      vertex 23.5 18 9
      vertex 40 17 9
      vertex 40 18 9
    endloop
  endfacet
  facet normal 0 0 1
    outer loop
      vertex 40 17 9
      vertex 23.5 18 9
      vertex 23.5 17 9
    endloop
  endfacet
  facet normal -0 0 1
    outer loop
      vertex 0 23 9
      vertex 40 22 9
      vertex 40 23 9
    endloop
  endfacet
  facet normal 0 0 1
    outer loop
      vertex 40 22 9
      vertex 0 23 9
      vertex 0 22 9
    endloop
  endfacet
  facet normal 0 1 -0
    outer loop
      vertex 16.5 18 1
      vertex 0 18 9
      vertex 16.5 18 9
    endloop
  endfacet
  facet normal 0 1 0
    outer loop
      vertex 0 18 9
      vertex 16.5 18 1
      vertex 0 18 1
    endloop
  endfacet
  facet normal 0 1 -0
    outer loop
      vertex 40 18 1
      vertex 23.5 18 9
      vertex 40 18 9
    endloop
  endfacet
  facet normal 0 1 0
    outer loop
      vertex 23.5 18 9
      vertex 40 18 1
      vertex 23.5 18 1
    endloop
  endfacet
  facet normal 0 -1 0
    outer loop
      vertex 0 22 1
      vertex 40 22 9
      vertex 0 22 9
    endloop
  endfacet
  facet normal 0 -1 -0
    outer loop
      vertex 40 22 9
      vertex 0 22 1
      vertex 40 22 1
    endloop
  endfacet
  facet normal 1 -0 0
    outer loop
      vertex 16.5 17 9
      vertex 16.5 18 1
      vertex 16.5 18 9
    endloop
  endfacet
  facet normal 1 0 0
    outer loop
      vertex 16.5 18 1
      vertex 16.5 17 9
      vertex 16.5 17 1
    endloop
  endfacet
  facet normal -1 0 0
    outer loop
      vertex 23.5 17 1
      vertex 23.5 18 9
      vertex 23.5 18 1
    endloop
  endfacet
  facet normal -1 -0 0
    outer loop
      vertex 23.5 18 9
      vertex 23.5 17 1
      vertex 23.5 17 9
    endloop
  endfacet
endsolid OpenSCAD_Model
