solid OpenSCAD_Model
  facet normal -1 0 0
    outer loop
      vertex 0 40 0
      vertex 0 24 1
      vertex 0 40 1
    endloop
  endfacet
  facet normal -1 0 0
    outer loop
      vertex 0 24 1
      vertex 0 23 1
      vertex 0 24 10
    endloop
  endfacet
  facet normal -1 0 0
    outer loop
      vertex 0 40 0
      vertex 0 23 1
      vertex 0 24 1
    endloop
  endfacet
  facet normal -1 0 0
    outer loop
      vertex 0 40 0
      vertex 0 17 1
      vertex 0 23 1
    endloop
  endfacet
  facet normal -1 0 0
    outer loop
      vertex 0 17 1
      vertex 0 16 1
      vertex 0 17 10
    endloop
  endfacet
  facet normal -1 0 0
    outer loop
      vertex 0 0 0
      vertex 0 17 1
      vertex 0 40 0
    endloop
  endfacet
  facet normal -1 -0 0
    outer loop
      vertex 0 17 1
      vertex 0 0 0
      vertex 0 16 1
    endloop
  endfacet
  facet normal -1 -0 0
    outer loop
      vertex 0 16 1
      vertex 0 0 0
      vertex 0 0 1
    endloop
  endfacet
  facet normal -1 -0 0
    outer loop
      vertex 0 24 10
      vertex 0 23 1
      vertex 0 23 10
    endloop
  endfacet
  facet normal -1 -0 0
    outer loop
      vertex 0 17 10
      vertex 0 16 1
      vertex 0 16 10
    endloop
  endfacet
  facet normal -0 0 1
    outer loop
      vertex 0 17 10
      vertex 40 16 10
      vertex 40 17 10
    endloop
  endfacet
  facet normal 0 0 1
    outer loop
      vertex 40 16 10
      vertex 0 17 10
      vertex 0 16 10
    endloop
  endfacet
  facet normal -0 0 1
    outer loop
      vertex 0 24 10
      vertex 40 23 10
      vertex 40 24 10
    endloop
  endfacet
  facet normal 0 0 1
    outer loop
      vertex 40 23 10
      vertex 0 24 10
      vertex 0 23 10
    endloop
  endfacet
  facet normal 1 0 0
    outer loop
      vertex 40 17 10
      vertex 40 16 10
      vertex 40 17 1
    endloop
  endfacet
  facet normal 1 0 0
    outer loop
      vertex 40 24 10
      vertex 40 23 10
      vertex 40 24 1
    endloop
  endfacet
  facet normal 1 -0 0
    outer loop
      vertex 40 24 1
      vertex 40 40 0
      vertex 40 40 1
    endloop
  endfacet
  facet normal 1 0 0
    outer loop
      vertex 40 23 1
      vertex 40 24 1
      vertex 40 23 10
    endloop
  endfacet
  facet normal 1 -0 0
    outer loop
      vertex 40 23 1
      vertex 40 40 0
      vertex 40 24 1
    endloop
  endfacet
  facet normal 1 -0 0
    outer loop
      vertex 40 17 1
      vertex 40 40 0
      vertex 40 23 1
    endloop
  endfacet
  facet normal 1 0 0
    outer loop
      vertex 40 16 1
      vertex 40 17 1
      vertex 40 16 10
    endloop
  endfacet
  facet normal 1 0 0
    outer loop
      vertex 40 0 0
      vertex 40 17 1
      vertex 40 16 1
    endloop
  endfacet
  facet normal 1 0 0
    outer loop
      vertex 40 0 0
      vertex 40 16 1
      vertex 40 0 1
    endloop
  endfacet
  facet normal 1 0 0
    outer loop
      vertex 40 17 1
      vertex 40 0 0
      vertex 40 40 0
    endloop
  endfacet
  facet normal 0 1 -0
    outer loop
      vertex 40 24 1
      vertex 0 24 10
      vertex 40 24 10
    endloop
  endfacet
  facet normal 0 1 0
    outer loop
      vertex 0 24 10
      vertex 40 24 1
      vertex 0 24 1
    endloop
  endfacet
  facet normal 0 0 -1
    outer loop
      vertex 0 0 0
      vertex 40 40 0
      vertex 40 0 0
    endloop
  endfacet
  facet normal -0 0 -1
    outer loop
      vertex 40 40 0
      vertex 0 0 0
      vertex 0 40 0
    endloop
  endfacet
  facet normal 0 -1 0
    outer loop
      vertex 0 16 1
      vertex 40 16 10
      vertex 0 16 10
    endloop
  endfacet
  facet normal 0 -1 -0
    outer loop
      vertex 40 16 10
      vertex 0 16 1
      vertex 40 16 1
    endloop
  endfacet
  facet normal 0 -1 0
    outer loop
      vertex 0 23 1
      vertex 40 23 10
      vertex 0 23 10
    endloop
  endfacet
  facet normal 0 -1 -0
    outer loop
      vertex 40 23 10
      vertex 0 23 1
      vertex 40 23 1
    endloop
  endfacet
  facet normal -0 0 1
    outer loop
      vertex 0 23 1
      vertex 40 17 1
      vertex 40 23 1
    endloop
  endfacet
  facet normal 0 0 1
    outer loop
      vertex 40 17 1
      vertex 0 23 1
      vertex 0 17 1
    endloop
  endfacet
  facet normal -0 0 1
    outer loop
      vertex 0 16 1
      vertex 40 0 1
      vertex 40 16 1
    endloop
  endfacet
  facet normal 0 0 1
    outer loop
      vertex 40 0 1
      vertex 0 16 1
      vertex 0 0 1
    endloop
  endfacet
  facet normal -0 0 1
    outer loop
      vertex 0 40 1
      vertex 40 24 1
      vertex 40 40 1
    endloop
  endfacet
  facet normal 0 0 1
    outer loop
      vertex 40 24 1
      vertex 0 40 1
      vertex 0 24 1
    endloop
  endfacet
  facet normal 0 1 -0
    outer loop
      vertex 40 17 1
      vertex 0 17 10
      vertex 40 17 10
    endloop
  endfacet
  facet normal 0 1 0
    outer loop
      vertex 0 17 10
      vertex 40 17 1
      vertex 0 17 1
    endloop
  endfacet
  facet normal 0 1 -0
    outer loop
      vertex 40 40 0
      vertex 0 40 1
      vertex 40 40 1
    endloop
  endfacet
  facet normal 0 1 0
    outer loop
      vertex 0 40 1
      vertex 40 40 0
      vertex 0 40 0
    endloop
  endfacet
  facet normal 0 -1 0
    outer loop
      vertex 0 0 0
      vertex 40 0 1
      vertex 0 0 1
    endloop
  endfacet
  facet normal 0 -1 -0
    outer loop
      vertex 40 0 1
      vertex 0 0 0
      vertex 40 0 0
    endloop
  endfacet
endsolid OpenSCAD_Model
