solid OpenSCAD_Model
  facet normal -1 0 0
    outer loop
      vertex 0 8 0
      vertex 0 7 1
      vertex 0 8 5
    endloop
  endfacet
  facet normal -1 0 0
    outer loop
      vertex 0 8 0
      vertex 0 1 1
      vertex 0 7 1
    endloop
  endfacet
  facet normal -1 0 0
    outer loop
      vertex 0 0 0
      vertex 0 1 1
      vertex 0 8 0
    endloop
  endfacet
  facet normal -1 0 0
    outer loop
      vertex 0 0 5
      vertex 0 1 1
      vertex 0 0 0
    endloop
  endfacet
  facet normal -1 0 0
    outer loop
      vertex 0 1 1
      vertex 0 0 5
      vertex 0 1 5
    endloop
  endfacet
  facet normal -1 -0 0
    outer loop
      vertex 0 8 5
      vertex 0 7 1
      vertex 0 7 5
    endloop
  endfacet
  facet normal 0 0 1
    outer loop
      vertex 97.5 8 12
      vertex 97 7 12
      vertex 97.5 6 12
    endloop
  endfacet
  facet normal 0 0 1
    outer loop
      vertex 97.5 8 12
      vertex 3 7 12
      vertex 97 7 12
    endloop
  endfacet
  facet normal -0 0 1
    outer loop
      vertex 2.5 8 12
      vertex 3 7 12
      vertex 97.5 8 12
    endloop
  endfacet
  facet normal 0 0 1
    outer loop
      vertex 2.5 6 12
      vertex 3 7 12
      vertex 2.5 8 12
    endloop
  endfacet
  facet normal 0 0 1
    outer loop
      vertex 3 7 12
      vertex 2.5 6 12
      vertex 3 6 12
    endloop
  endfacet
  facet normal 0 0 1
    outer loop
      vertex 97.5 6 12
      vertex 97 7 12
      vertex 97 6 12
    endloop
  endfacet
  facet normal 0 0 1
    outer loop
      vertex 3 2 12
      vertex 2.5 2 12
      vertex 3 1 12
    endloop
  endfacet
  facet normal 0 0 1
    outer loop
      vertex 97 1 12
      vertex 97.5 2 12
      vertex 97 2 12
    endloop
  endfacet
  facet normal 0 0 1
    outer loop
      vertex 97.5 2 12
      vertex 97 1 12
      vertex 97.5 0 12
    endloop
  endfacet
  facet normal -0 0 1
    outer loop
      vertex 3 1 12
      vertex 97.5 0 12
      vertex 97 1 12
    endloop
  endfacet
  facet normal 0 0 1
    outer loop
      vertex 3 1 12
      vertex 2.5 0 12
      vertex 97.5 0 12
    endloop
  endfacet
  facet normal 0 0 1
    outer loop
      vertex 2.5 0 12
      vertex 3 1 12
      vertex 2.5 2 12
    endloop
  endfacet
  facet normal 1 0 0
    outer loop
      vertex 100 1 5
      vertex 100 0 5
      vertex 100 1 1
    endloop
  endfacet
  facet normal 1 0 0
    outer loop
      vertex 100 7 1
      vertex 100 8 5
      vertex 100 7 5
    endloop
  endfacet
  facet normal 1 0 0
    outer loop
      vertex 100 8 5
      vertex 100 7 1
      vertex 100 8 0
    endloop
  endfacet
  facet normal 1 -0 0
    outer loop
      vertex 100 1 1
      vertex 100 8 0
      vertex 100 7 1
    endloop
  endfacet
  facet normal 1 0 0
    outer loop
      vertex 100 1 1
      vertex 100 0 0
      vertex 100 8 0
    endloop
  endfacet
  facet normal 1 0 0
    outer loop
      vertex 100 0 0
      vertex 100 1 1
      vertex 100 0 5
    endloop
  endfacet
  facet normal 0 1 -0
    outer loop
      vertex 100 8 0
      vertex 97.5 8 5
      vertex 100 8 5
    endloop
  endfacet
  facet normal 0 1 0
    outer loop
      vertex 97.5 8 5
      vertex 100 8 0
      vertex 2.5 8 5
    endloop
  endfacet
  facet normal 0 1 0
    outer loop
      vertex 0 8 0
      vertex 2.5 8 5
      vertex 100 8 0
    endloop
  endfacet
  facet normal 0 1 0
    outer loop
      vertex 2.5 8 5
      vertex 0 8 0
      vertex 0 8 5
    endloop
  endfacet
  facet normal 0 1 -0
    outer loop
      vertex 97.5 8 5
      vertex 2.5 8 12
      vertex 97.5 8 12
    endloop
  endfacet
  facet normal 0 1 0
    outer loop
      vertex 2.5 8 12
      vertex 97.5 8 5
      vertex 2.5 8 5
    endloop
  endfacet
  facet normal 0 0 -1
    outer loop
      vertex 0 0 0
      vertex 100 8 0
      vertex 100 0 0
    endloop
  endfacet
  facet normal -0 0 -1
    outer loop
      vertex 100 8 0
      vertex 0 0 0
      vertex 0 8 0
    endloop
  endfacet
  facet normal 0 -1 0
    outer loop
      vertex 0 0 0
      vertex 2.5 0 5
      vertex 0 0 5
    endloop
  endfacet
  facet normal 0 -1 -0
    outer loop
      vertex 2.5 0 5
      vertex 0 0 0
      vertex 97.5 0 5
    endloop
  endfacet
  facet normal 0 -1 0
    outer loop
      vertex 100 0 0
      vertex 97.5 0 5
      vertex 0 0 0
    endloop
  endfacet
  facet normal 0 -1 0
    outer loop
      vertex 97.5 0 5
      vertex 100 0 0
      vertex 100 0 5
    endloop
  endfacet
  facet normal 0 -1 0
    outer loop
      vertex 2.5 0 5
      vertex 97.5 0 12
      vertex 2.5 0 12
    endloop
  endfacet
  facet normal 0 -1 -0
    outer loop
      vertex 97.5 0 12
      vertex 2.5 0 5
      vertex 97.5 0 5
    endloop
  endfacet
  facet normal 0 -1 0
    outer loop
      vertex 0 7 1
      vertex 2.5 7 5
      vertex 0 7 5
    endloop
  endfacet
  facet normal 0 -1 -0
    outer loop
      vertex 2.5 7 5
      vertex 0 7 1
      vertex 3 7 5
    endloop
  endfacet
  facet normal 0 -1 -0
    outer loop
      vertex 3 7 5
      vertex 0 7 1
      vertex 97 7 5
    endloop
  endfacet
  facet normal 0 -1 0
    outer loop
      vertex 100 7 1
      vertex 97 7 5
      vertex 0 7 1
    endloop
  endfacet
  facet normal 0 -1 0
    outer loop
      vertex 97 7 5
      vertex 100 7 1
      vertex 97.5 7 5
    endloop
  endfacet
  facet normal 0 -1 0
    outer loop
      vertex 97.5 7 5
      vertex 100 7 1
      vertex 100 7 5
    endloop
  endfacet
  facet normal 0 -1 0
    outer loop
      vertex 3 7 5
      vertex 97 7 12
      vertex 3 7 12
    endloop
  endfacet
  facet normal 0 -1 -0
    outer loop
      vertex 97 7 12
      vertex 3 7 5
      vertex 97 7 5
    endloop
  endfacet
  facet normal -0 0 1
    outer loop
      vertex 0 7 1
      vertex 100 1 1
      vertex 100 7 1
    endloop
  endfacet
  facet normal 0 0 1
    outer loop
      vertex 100 1 1
      vertex 0 7 1
      vertex 0 1 1
    endloop
  endfacet
  facet normal 0 1 -0
    outer loop
      vertex 100 1 1
      vertex 97.5 1 5
      vertex 100 1 5
    endloop
  endfacet
  facet normal 0 1 0
    outer loop
      vertex 97.5 1 5
      vertex 100 1 1
      vertex 97 1 5
    endloop
  endfacet
  facet normal 0 1 0
    outer loop
      vertex 97 1 5
      vertex 100 1 1
      vertex 3 1 5
    endloop
  endfacet
  facet normal 0 1 0
    outer loop
      vertex 0 1 1
      vertex 3 1 5
      vertex 100 1 1
    endloop
  endfacet
  facet normal 0 1 0
    outer loop
      vertex 3 1 5
      vertex 0 1 1
      vertex 2.5 1 5
    endloop
  endfacet
  facet normal 0 1 0
    outer loop
      vertex 2.5 1 5
      vertex 0 1 1
      vertex 0 1 5
    endloop
  endfacet
  facet normal 0 1 -0
    outer loop
      vertex 97 1 5
      vertex 3 1 12
      vertex 97 1 12
    endloop
  endfacet
  facet normal 0 1 0
    outer loop
      vertex 3 1 12
      vertex 97 1 5
      vertex 3 1 5
    endloop
  endfacet
  facet normal 1 -0 0
    outer loop
      vertex 3 1 12
      vertex 3 2 5
      vertex 3 2 12
    endloop
  endfacet
  facet normal 1 0 0
    outer loop
      vertex 3 2 5
      vertex 3 1 12
      vertex 3 1 5
    endloop
  endfacet
  facet normal 0 0 -1
    outer loop
      vertex 2.5 1 5
      vertex 3 2 5
      vertex 3 1 5
    endloop
  endfacet
  facet normal -0 0 -1
    outer loop
      vertex 3 2 5
      vertex 2.5 1 5
      vertex 2.5 2 5
    endloop
  endfacet
  facet normal -0 0 1
    outer loop
      vertex 0 1 5
      vertex 2.5 0 5
      vertex 2.5 1 5
    endloop
  endfacet
  facet normal 0 0 1
    outer loop
      vertex 2.5 0 5
      vertex 0 1 5
      vertex 0 0 5
    endloop
  endfacet
  facet normal 1 -0 0
    outer loop
      vertex 3 6 12
      vertex 3 7 5
      vertex 3 7 12
    endloop
  endfacet
  facet normal 1 0 0
    outer loop
      vertex 3 7 5
      vertex 3 6 12
      vertex 3 6 5
    endloop
  endfacet
  facet normal -0 0 1
    outer loop
      vertex 0 8 5
      vertex 2.5 7 5
      vertex 2.5 8 5
    endloop
  endfacet
  facet normal 0 0 1
    outer loop
      vertex 2.5 7 5
      vertex 0 8 5
      vertex 0 7 5
    endloop
  endfacet
  facet normal 0 0 -1
    outer loop
      vertex 2.5 6 5
      vertex 3 7 5
      vertex 3 6 5
    endloop
  endfacet
  facet normal -0 0 -1
    outer loop
      vertex 3 7 5
      vertex 2.5 6 5
      vertex 2.5 7 5
    endloop
  endfacet
  facet normal -1 0 0
    outer loop
      vertex 97 1 5
      vertex 97 2 12
      vertex 97 2 5
    endloop
  endfacet
  facet normal -1 -0 0
    outer loop
      vertex 97 2 12
      vertex 97 1 5
      vertex 97 1 12
    endloop
  endfacet
  facet normal 0 0 -1
    outer loop
      vertex 97 1 5
      vertex 97.5 2 5
      vertex 97.5 1 5
    endloop
  endfacet
  facet normal -0 0 -1
    outer loop
      vertex 97.5 2 5
      vertex 97 1 5
      vertex 97 2 5
    endloop
  endfacet
  facet normal -0 0 1
    outer loop
      vertex 97.5 1 5
      vertex 100 0 5
      vertex 100 1 5
    endloop
  endfacet
  facet normal 0 0 1
    outer loop
      vertex 100 0 5
      vertex 97.5 1 5
      vertex 97.5 0 5
    endloop
  endfacet
  facet normal -1 0 0
    outer loop
      vertex 97 6 5
      vertex 97 7 12
      vertex 97 7 5
    endloop
  endfacet
  facet normal -1 -0 0
    outer loop
      vertex 97 7 12
      vertex 97 6 5
      vertex 97 6 12
    endloop
  endfacet
  facet normal 0 0 -1
    outer loop
      vertex 97 6 5
      vertex 97.5 7 5
      vertex 97.5 6 5
    endloop
  endfacet
  facet normal -0 0 -1
    outer loop
      vertex 97.5 7 5
      vertex 97 6 5
      vertex 97 7 5
    endloop
  endfacet
  facet normal -0 0 1
    outer loop
      vertex 97.5 8 5
      vertex 100 7 5
      vertex 100 8 5
    endloop
  endfacet
  facet normal 0 0 1
    outer loop
      vertex 100 7 5
      vertex 97.5 8 5
      vertex 97.5 7 5
    endloop
  endfacet
  facet normal -1 0 0
    outer loop
      vertex 2.5 1 5
      vertex 2.5 2 12
      vertex 2.5 2 5
    endloop
  endfacet
  facet normal -1 0 0
    outer loop
      vertex 2.5 0 12
      vertex 2.5 1 5
      vertex 2.5 0 5
    endloop
  endfacet
  facet normal -1 0 0
    outer loop
      vertex 2.5 1 5
      vertex 2.5 0 12
      vertex 2.5 2 12
    endloop
  endfacet
  facet normal 0 1 -0
    outer loop
      vertex 3 2 5
      vertex 2.5 2 12
      vertex 3 2 12
    endloop
  endfacet
  facet normal 0 1 0
    outer loop
      vertex 2.5 2 12
      vertex 3 2 5
      vertex 2.5 2 5
    endloop
  endfacet
  facet normal -1 0 0
    outer loop
      vertex 2.5 7 5
      vertex 2.5 8 12
      vertex 2.5 8 5
    endloop
  endfacet
  facet normal -1 0 0
    outer loop
      vertex 2.5 6 12
      vertex 2.5 7 5
      vertex 2.5 6 5
    endloop
  endfacet
  facet normal -1 0 0
    outer loop
      vertex 2.5 7 5
      vertex 2.5 6 12
      vertex 2.5 8 12
    endloop
  endfacet
  facet normal 0 -1 0
    outer loop
      vertex 2.5 6 5
      vertex 3 6 12
      vertex 2.5 6 12
    endloop
  endfacet
  facet normal 0 -1 -0
    outer loop
      vertex 3 6 12
      vertex 2.5 6 5
      vertex 3 6 5
    endloop
  endfacet
  facet normal 1 0 0
    outer loop
      vertex 97.5 2 12
      vertex 97.5 1 5
      vertex 97.5 2 5
    endloop
  endfacet
  facet normal 1 -0 0
    outer loop
      vertex 97.5 0 12
      vertex 97.5 1 5
      vertex 97.5 2 12
    endloop
  endfacet
  facet normal 1 0 0
    outer loop
      vertex 97.5 1 5
      vertex 97.5 0 12
      vertex 97.5 0 5
    endloop
  endfacet
  facet normal 0 1 -0
    outer loop
      vertex 97.5 2 5
      vertex 97 2 12
      vertex 97.5 2 12
    endloop
  endfacet
  facet normal 0 1 0
    outer loop
      vertex 97 2 12
      vertex 97.5 2 5
      vertex 97 2 5
    endloop
  endfacet
  facet normal 1 0 0
    outer loop
      vertex 97.5 8 12
      vertex 97.5 7 5
      vertex 97.5 8 5
    endloop
  endfacet
  facet normal 1 -0 0
    outer loop
      vertex 97.5 6 12
      vertex 97.5 7 5
      vertex 97.5 8 12
    endloop
  endfacet
  facet normal 1 0 0
    outer loop
      vertex 97.5 7 5
      vertex 97.5 6 12
      vertex 97.5 6 5
    endloop
  endfacet
  facet normal 0 -1 0
    outer loop
      vertex 97 6 5
      vertex 97.5 6 12
      vertex 97 6 12
    endloop
  endfacet
  facet normal 0 -1 -0
    outer loop
      vertex 97.5 6 12
      vertex 97 6 5
      vertex 97.5 6 5
    endloop
  endfacet
endsolid OpenSCAD_Model
