solid OpenSCAD_Model
  facet normal -1 0 0
    outer loop
      vertex 0 10 0
      vertex 0 9 1
      vertex 0 10 10
    endloop
  endfacet
  facet normal -1 0 0
    outer loop
      vertex 0 10 0
      vertex 0 1 1
      vertex 0 9 1
    endloop
  endfacet
  facet normal -1 0 0
    outer loop
      vertex 0 0 0
      vertex 0 1 1
      vertex 0 10 0
    endloop
  endfacet
  facet normal -1 0 0
    outer loop
      vertex 0 0 10
      vertex 0 1 1
      vertex 0 0 0
    endloop
  endfacet
  facet normal -1 0 0
    outer loop
      vertex 0 1 1
      vertex 0 0 10
      vertex 0 1 10
    endloop
  endfacet
  facet normal -1 -0 0
    outer loop
      vertex 0 10 10
      vertex 0 9 1
      vertex 0 9 10
    endloop
  endfacet
  facet normal -0 0 1
    outer loop
      vertex 0 1 10
      vertex 60 0 10
      vertex 60 1 10
    endloop
  endfacet
  facet normal 0 0 1
    outer loop
      vertex 60 0 10
      vertex 0 1 10
      vertex 0 0 10
    endloop
  endfacet
  facet normal -0 0 1
    outer loop
      vertex 0 10 10
      vertex 60 9 10
      vertex 60 10 10
    endloop
  endfacet
  facet normal 0 0 1
    outer loop
      vertex 60 9 10
      vertex 0 10 10
      vertex 0 9 10
    endloop
  endfacet
  facet normal 1 0 0
    outer loop
      vertex 60 1 10
      vertex 60 0 10
      vertex 60 1 1
    endloop
  endfacet
  facet normal 1 0 0
    outer loop
      vertex 60 9 1
      vertex 60 10 10
      vertex 60 9 10
    endloop
  endfacet
  facet normal 1 0 0
    outer loop
      vertex 60 10 10
      vertex 60 9 1
      vertex 60 10 0
    endloop
  endfacet
  facet normal 1 -0 0
    outer loop
      vertex 60 1 1
      vertex 60 10 0
      vertex 60 9 1
    endloop
  endfacet
  facet normal 1 0 0
    outer loop
      vertex 60 1 1
      vertex 60 0 0
      vertex 60 10 0
    endloop
  endfacet
  facet normal 1 0 0
    outer loop
      vertex 60 0 0
      vertex 60 1 1
      vertex 60 0 10
    endloop
  endfacet
  facet normal 0 0 -1
    outer loop
      vertex 0 0 0
      vertex 60 10 0
      vertex 60 0 0
    endloop
  endfacet
  facet normal -0 0 -1
    outer loop
      vertex 60 10 0
      vertex 0 0 0
      vertex 0 10 0
    endloop
  endfacet
  facet normal 0 -1 0
    outer loop
      vertex 0 0 0
      vertex 60 0 10
      vertex 0 0 10
    endloop
  endfacet
  facet normal 0 -1 -0
    outer loop
      vertex 60 0 10
      vertex 0 0 0
      vertex 60 0 0
    endloop
  endfacet
  facet normal 0 1 -0
    outer loop
      vertex 60 10 0
      vertex 0 10 10
      vertex 60 10 10
    endloop
  endfacet
  facet normal 0 1 0
    outer loop
      vertex 0 10 10
      vertex 60 10 0
      vertex 0 10 0
    endloop
  endfacet
  facet normal 0 -1 0
    outer loop
      vertex 0 9 1
      vertex 60 9 10
      vertex 0 9 10
    endloop
  endfacet
  facet normal 0 -1 -0
    outer loop
      vertex 60 9 10
      vertex 0 9 1
      vertex 60 9 1
    endloop
  endfacet
  facet normal -0 0 1
    outer loop
      vertex 0 9 1
      vertex 60 1 1
      vertex 60 9 1
    endloop
  endfacet
  facet normal 0 0 1
    outer loop
      vertex 60 1 1
      vertex 0 9 1
      vertex 0 1 1
    endloop
  endfacet
  facet normal 0 1 -0
    outer loop
      vertex 60 1 1
      vertex 0 1 10
      vertex 60 1 10
    endloop
  endfacet
  facet normal 0 1 0
    outer loop
      vertex 0 1 10
      vertex 60 1 1
      vertex 0 1 1
    endloop
  endfacet
endsolid OpenSCAD_Model
