solid OpenSCAD_Model
  facet normal -1 0 0
    outer loop
      vertex 0 0 0
      vertex 0 51 20
      vertex 0 51 0
    endloop
  endfacet
  facet normal -1 -0 0
    outer loop
      vertex 0 51 20
      vertex 0 0 0
      vertex 0 0 20
    endloop
  endfacet
  facet normal 0 0 1
    outer loop
      vertex 80 51 20
      vertex 79 50 20
      vertex 80 0 20
    endloop
  endfacet
  facet normal 0 0 1
    outer loop
      vertex 80 51 20
      vertex 1 50 20
      vertex 79 50 20
    endloop
  endfacet
  facet normal 0 0 1
    outer loop
      vertex 1 50 20
      vertex 0 51 20
      vertex 1 1 20
    endloop
  endfacet
  facet normal -0 0 1
    outer loop
      vertex 0 51 20
      vertex 1 50 20
      vertex 80 51 20
    endloop
  endfacet
  facet normal -0 0 1
    outer loop
      vertex 79 1 20
      vertex 80 0 20
      vertex 79 50 20
    endloop
  endfacet
  facet normal -0 0 1
    outer loop
      vertex 1 1 20
      vertex 80 0 20
      vertex 79 1 20
    endloop
  endfacet
  facet normal 0 0 1
    outer loop
      vertex 1 1 20
      vertex 0 0 20
      vertex 80 0 20
    endloop
  endfacet
  facet normal 0 0 1
    outer loop
      vertex 0 0 20
      vertex 1 1 20
      vertex 0 51 20
    endloop
  endfacet
  facet normal 1 -0 0
    outer loop
      vertex 80 0 20
      vertex 80 51 0
      vertex 80 51 20
    endloop
  endfacet
  facet normal 1 0 0
    outer loop
      vertex 80 51 0
      vertex 80 0 20
      vertex 80 0 0
    endloop
  endfacet
  facet normal 0 1 -0
    outer loop
      vertex 80 51 0
      vertex 0 51 20
      vertex 80 51 20
    endloop
  endfacet
  facet normal 0 1 0
    outer loop
      vertex 0 51 20
      vertex 80 51 0
      vertex 0 51 0
    endloop
  endfacet
  facet normal 0 0 -1
    outer loop
      vertex 0 0 0
      vertex 80 51 0
      vertex 80 0 0
    endloop
  endfacet
  facet normal -0 0 -1
    outer loop
      vertex 80 51 0
      vertex 0 0 0
      vertex 0 51 0
    endloop
  endfacet
  facet normal 0 -1 0
    outer loop
      vertex 0 0 0
      vertex 80 0 20
      vertex 0 0 20
    endloop
  endfacet
  facet normal 0 -1 -0
    outer loop
      vertex 80 0 20
      vertex 0 0 0
      vertex 80 0 0
    endloop
  endfacet
  facet normal 1 -0 0
    outer loop
      vertex 1 1 20
      vertex 1 50 1
      vertex 1 50 20
    endloop
  endfacet
  facet normal 1 0 0
    outer loop
      vertex 1 50 1
      vertex 1 1 20
      vertex 1 1 1
    endloop
  endfacet
  facet normal -1 0 0
    outer loop
      vertex 79 1 1
      vertex 79 50 20
      vertex 79 50 1
    endloop
  endfacet
  facet normal -1 -0 0
    outer loop
      vertex 79 50 20
      vertex 79 1 1
      vertex 79 1 20
    endloop
  endfacet
  facet normal -0 0 1
    outer loop
      vertex 1 50 1
      vertex 79 1 1
      vertex 79 50 1
    endloop
  endfacet
  facet normal 0 0 1
    outer loop
      vertex 79 1 1
      vertex 1 50 1
      vertex 1 1 1
    endloop
  endfacet
  facet normal 0 1 -0
    outer loop
      vertex 79 1 1
      vertex 1 1 20
      vertex 79 1 20
    endloop
  endfacet
  facet normal 0 1 0
    outer loop
      vertex 1 1 20
      vertex 79 1 1
      vertex 1 1 1
    endloop
  endfacet
  facet normal 0 -1 0
    outer loop
      vertex 1 50 1
      vertex 79 50 20
      vertex 1 50 20
    endloop
  endfacet
  facet normal 0 -1 -0
    outer loop
      vertex 79 50 20
      vertex 1 50 1
      vertex 79 50 1
    endloop
  endfacet
endsolid OpenSCAD_Model
