solid OpenSCAD_Model
  facet normal -1 0 0
    outer loop
      vertex 0 0 0
      vertex 0 50 18
      vertex 0 50 0
    endloop
  endfacet
  facet normal -1 -0 0
    outer loop
      vertex 0 50 18
      vertex 0 0 0
      vertex 0 0 18
    endloop
  endfacet
  facet normal -0 0 1
    outer loop
      vertex 0 50 18
      vertex 70 0 18
      vertex 70 50 18
    endloop
  endfacet
  facet normal 0 0 1
    outer loop
      vertex 70 0 18
      vertex 0 50 18
      vertex 0 0 18
    endloop
  endfacet
  facet normal 1 -0 0
    outer loop
      vertex 70 0 18
      vertex 70 50 0
      vertex 70 50 18
    endloop
  endfacet
  facet normal 1 0 0
    outer loop
      vertex 70 50 0
      vertex 70 0 18
      vertex 70 0 0
    endloop
  endfacet
  facet normal 0 1 -0
    outer loop
      vertex 70 50 0
      vertex 0 50 18
      vertex 70 50 18
    endloop
  endfacet
  facet normal 0 1 0
    outer loop
      vertex 0 50 18
      vertex 70 50 0
      vertex 0 50 0
    endloop
  endfacet
  facet normal 0 0 -1
    outer loop
      vertex 70 0 0
      vertex 68 2 0
      vertex 70 50 0
    endloop
  endfacet
  facet normal 0 0 -1
    outer loop
      vertex 70 0 0
      vertex 2 2 0
      vertex 68 2 0
    endloop
  endfacet
  facet normal -0 0 -1
    outer loop
      vertex 2 2 0
      vertex 0 0 0
      vertex 2 48 0
    endloop
  endfacet
  facet normal 0 0 -1
    outer loop
      vertex 0 0 0
      vertex 2 2 0
      vertex 70 0 0
    endloop
  endfacet
  facet normal 0 0 -1
    outer loop
      vertex 68 48 0
      vertex 70 50 0
      vertex 68 2 0
    endloop
  endfacet
  facet normal 0 0 -1
    outer loop
      vertex 2 48 0
      vertex 70 50 0
      vertex 68 48 0
    endloop
  endfacet
  facet normal 0 0 -1
    outer loop
      vertex 2 48 0
      vertex 0 50 0
      vertex 70 50 0
    endloop
  endfacet
  facet normal 0 0 -1
    outer loop
      vertex 0 50 0
      vertex 2 48 0
      vertex 0 0 0
    endloop
  endfacet
  facet normal 0 -1 0
    outer loop
      vertex 0 0 0
      vertex 70 0 18
      vertex 0 0 18
    endloop
  endfacet
  facet normal 0 -1 -0
    outer loop
      vertex 70 0 18
      vertex 0 0 0
      vertex 70 0 0
    endloop
  endfacet
  facet normal 1 -0 0
    outer loop
      vertex 2 2 16
      vertex 2 48 0
      vertex 2 48 16
    endloop
  endfacet
  facet normal 1 0 0
    outer loop
      vertex 2 48 0
      vertex 2 2 16
      vertex 2 2 0
    endloop
  endfacet
  facet normal 0 0 -1
    outer loop
      vertex 2 2 16
      vertex 68 48 16
      vertex 68 2 16
    endloop
  endfacet
  facet normal -0 0 -1
    outer loop
      vertex 68 48 16
      vertex 2 2 16
      vertex 2 48 16
    endloop
  endfacet
  facet normal -1 0 0
    outer loop
      vertex 68 2 0
      vertex 68 48 16
      vertex 68 48 0
    endloop
  endfacet
  facet normal -1 -0 0
    outer loop
      vertex 68 48 16
      vertex 68 2 0
      vertex 68 2 16
    endloop
  endfacet
  facet normal 0 -1 0
    outer loop
      vertex 2 48 0
      vertex 68 48 16
      vertex 2 48 16
    endloop
  endfacet
  facet normal 0 -1 -0
    outer loop
      vertex 68 48 16
      vertex 2 48 0
      vertex 68 48 0
    endloop
  endfacet
  facet normal 0 1 -0
    outer loop
      vertex 68 2 0
      vertex 2 2 16
      vertex 68 2 16
    endloop
  endfacet
  facet normal 0 1 0
    outer loop
      vertex 2 2 16
      vertex 68 2 0
      vertex 2 2 0
    endloop
  endfacet
endsolid OpenSCAD_Model
