solid OpenSCAD_Model
  facet normal -1 0 0
    outer loop
      vertex 0 0 0
      vertex 0 51 20
      vertex 0 51 0
    endloop
  endfacet
  facet normal -1 -0 0
    outer loop
      vertex 0 51 20
      vertex 0 0 0
      vertex 0 0 20
    endloop
  endfacet
  facet normal 0 0 1
    outer loop
      vertex 80 51 20
      vertex 79.75 50.75 20
      vertex 80 0 20
    endloop
  endfacet
  facet normal 0 0 1
    outer loop
      vertex 80 51 20
      vertex 0.25 50.75 20
      vertex 79.75 50.75 20
    endloop
  endfacet
  facet normal 0 0 1
    outer loop
      vertex 0.25 50.75 20
      vertex 0 51 20
      vertex 0.25 0.25 20
    endloop
  endfacet
  facet normal -0 0 1
    outer loop
      vertex 0 51 20
      vertex 0.25 50.75 20
      vertex 80 51 20
    endloop
  endfacet
  facet normal -0 0 1
    outer loop
      vertex 79.75 0.25 20
      vertex 80 0 20
      vertex 79.75 50.75 20
    endloop
  endfacet
  facet normal -0 0 1
    outer loop
      vertex 0.25 0.25 20
      vertex 80 0 20
      vertex 79.75 0.25 20
    endloop
  endfacet
  facet normal 0 0 1
    outer loop
      vertex 0.25 0.25 20
      vertex 0 0 20
      vertex 80 0 20
    endloop
  endfacet
  facet normal 0 0 1
    outer loop
      vertex 0 0 20
      vertex 0.25 0.25 20
      vertex 0 51 20
    endloop
  endfacet
  facet normal 1 -0 0
    outer loop
      vertex 80 0 20
      vertex 80 51 0
      vertex 80 51 20
    endloop
  endfacet
  facet normal 1 0 0
    outer loop
      vertex 80 51 0
      vertex 80 0 20
      vertex 80 0 0
    endloop
  endfacet
  facet normal 0 1 -0
    outer loop
      vertex 80 51 0
      vertex 0 51 20
      vertex 80 51 20
    endloop
  endfacet
  facet normal 0 1 0
    outer loop
      vertex 0 51 20
      vertex 80 51 0
      vertex 0 51 0
    endloop
  endfacet
  facet normal 0 0 -1
    outer loop
      vertex 0 0 0
      vertex 80 51 0
      vertex 80 0 0
    endloop
  endfacet
  facet normal -0 0 -1
    outer loop
      vertex 80 51 0
      vertex 0 0 0
      vertex 0 51 0
    endloop
  endfacet
  facet normal 0 -1 0
    outer loop
      vertex 0 0 0
      vertex 80 0 20
      vertex 0 0 20
    endloop
  endfacet
  facet normal 0 -1 -0
    outer loop
      vertex 80 0 20
      vertex 0 0 0
      vertex 80 0 0
    endloop
  endfacet
  facet normal 1 -0 0
    outer loop
      vertex 0.25 0.25 20
      vertex 0.25 50.75 0.5
      vertex 0.25 50.75 20
    endloop
  endfacet
  facet normal 1 0 0
    outer loop
      vertex 0.25 50.75 0.5
      vertex 0.25 0.25 20
      vertex 0.25 0.25 0.5
    endloop
  endfacet
  facet normal -1 0 0
    outer loop
      vertex 79.75 0.25 0.5
      vertex 79.75 50.75 20
      vertex 79.75 50.75 0.5
    endloop
  endfacet
  facet normal -1 -0 0
    outer loop
      vertex 79.75 50.75 20
      vertex 79.75 0.25 0.5
      vertex 79.75 0.25 20
    endloop
  endfacet
  facet normal 0 -1 0
    outer loop
      vertex 0.25 50.75 0.5
      vertex 79.75 50.75 20
      vertex 0.25 50.75 20
    endloop
  endfacet
  facet normal 0 -1 -0
    outer loop
      vertex 79.75 50.75 20
      vertex 0.25 50.75 0.5
      vertex 79.75 50.75 0.5
    endloop
  endfacet
  facet normal -0 0 1
    outer loop
      vertex 0.25 50.75 0.5
      vertex 79.75 0.25 0.5
      vertex 79.75 50.75 0.5
    endloop
  endfacet
  facet normal 0 0 1
    outer loop
      vertex 79.75 0.25 0.5
      vertex 0.25 50.75 0.5
      vertex 0.25 0.25 0.5
    endloop
  endfacet
  facet normal 0 1 -0
    outer loop
      vertex 79.75 0.25 0.5
      vertex 0.25 0.25 20
      vertex 79.75 0.25 20
    endloop
  endfacet
  facet normal 0 1 0
    outer loop
      vertex 0.25 0.25 20
      vertex 79.75 0.25 0.5
      vertex 0.25 0.25 0.5
    endloop
  endfacet
endsolid OpenSCAD_Model
