<?xml version="1.0" encoding="UTF-8" standalone="no"?>
<!-- Created with Inkscape (http://www.inkscape.org/) -->

<svg
   xmlns:dc="http://purl.org/dc/elements/1.1/"
   xmlns:cc="http://creativecommons.org/ns#"
   xmlns:rdf="http://www.w3.org/1999/02/22-rdf-syntax-ns#"
   xmlns:svg="http://www.w3.org/2000/svg"
   xmlns="http://www.w3.org/2000/svg"
   xmlns:sodipodi="http://sodipodi.sourceforge.net/DTD/sodipodi-0.dtd"
   xmlns:inkscape="http://www.inkscape.org/namespaces/inkscape"
   width="210mm"
   height="297mm"
   viewBox="0 0 744.09448819 1052.3622047"
   id="svg2"
   version="1.1"
   inkscape:version="0.91 r13725"
   sodipodi:docname="circuit2.svg">
  <defs
     id="defs4" />
  <sodipodi:namedview
     id="base"
     pagecolor="#ffffff"
     bordercolor="#666666"
     borderopacity="1.0"
     inkscape:pageopacity="0.0"
     inkscape:pageshadow="2"
     inkscape:zoom="1.4142136"
     inkscape:cx="359.35642"
     inkscape:cy="693.66352"
     inkscape:document-units="px"
     inkscape:current-layer="layer1"
     showgrid="false"
     inkscape:window-width="1920"
     inkscape:window-height="1031"
     inkscape:window-x="0"
     inkscape:window-y="27"
     inkscape:window-maximized="1" />
  <metadata
     id="metadata7">
    <rdf:RDF>
      <cc:Work
         rdf:about="">
        <dc:format>image/svg+xml</dc:format>
        <dc:type
           rdf:resource="http://purl.org/dc/dcmitype/StillImage" />
      </cc:Work>
    </rdf:RDF>
  </metadata>
  <g
     inkscape:label="Calque 1"
     inkscape:groupmode="layer"
     id="layer1"
     style="display:inline">
    <path
       style="fill:#ffb300;fill-opacity:1"
       d="M 822.04688,-591.73242 A 822.04724,822.04724 0 0 0 0,230.31445 822.04724,822.04724 0 0 0 822.04688,1052.3613 822.04724,822.04724 0 0 0 1644.0938,230.31445 822.04724,822.04724 0 0 0 822.04688,-591.73242 Z m 0,7.08594 A 814.96063,814.96063 0 0 1 1637.0078,230.31445 814.96063,814.96063 0 0 1 822.04688,1045.2754 814.96063,814.96063 0 0 1 7.0859375,230.31445 814.96063,814.96063 0 0 1 822.04688,-584.64648 Z"
       id="path3336"
       inkscape:connector-curvature="0" />
    <path
       inkscape:connector-curvature="0"
       style="fill:#ffb300;fill-opacity:1"
       d="M 822.04722,-467.71653 A 698.03181,698.03183 0 0 0 124.01575,230.31498 698.03181,698.03183 0 0 0 822.04722,928.34646 698.03181,698.03183 0 0 0 1520.0787,230.31498 698.03181,698.03183 0 0 0 822.04722,-467.71653 Z m 0,6.01691 A 692.0143,692.01431 0 0 1 1514.0617,230.31498 692.0143,692.01431 0 0 1 822.04722,922.32955 692.0143,692.01431 0 0 1 130.03267,230.31498 692.0143,692.01431 0 0 1 822.04722,-461.69962 Z"
       id="path3336-6" />
    <path
       style="fill:none;fill-rule:evenodd;stroke:#000000;stroke-width:0.30919388px;stroke-linecap:butt;stroke-linejoin:miter;stroke-opacity:1"
       d="m 822.20181,-591.73202 3.23732,1643.93962 0,0"
       id="path3415"
       inkscape:connector-curvature="0" />
    <rect
       style="fill:#ffb300;fill-opacity:1;stroke:#000000;stroke-opacity:1;stroke-width:0.9992126;stroke-miterlimit:4;stroke-dasharray:none"
       id="rect3423"
       width="602.14221"
       height="592.70428"
       x="-1100.4668"
       y="-578.51837" />
    <path
       style="fill:none;fill-rule:evenodd;stroke:#000000;stroke-width:0.99618793px;stroke-linecap:butt;stroke-linejoin:miter;stroke-opacity:1"
       d="M 0.35220432,1052.0101 821.69504,230.66589"
       id="path3619"
       inkscape:connector-curvature="0" />
    <path
       style="fill:#ff0000;fill-opacity:1"
       d="M 593.34903,799.24094 C 537.58202,742.15072 486.07918,668.62291 449.09417,593.29609 397.16013,487.52277 369.87701,378.15599 364.99643,256.18293 c -0.95675,-23.91066 -0.91899,-24.39518 1.90128,-24.39518 2.72277,0 2.92608,1.12109 3.78286,20.85965 3.88574,89.52062 16.26745,158.67382 42.47623,237.23432 37.56759,112.60844 100.6241,217.73264 180.76299,301.35765 11.38882,11.88425 14.63562,16.08346 13.39496,17.32412 -0.90068,0.90068 -2.00255,1.6376 -2.4486,1.6376 -0.44604,0 -5.62875,-4.93207 -11.51712,-10.96015 z"
       id="path3621"
       inkscape:connector-curvature="0" />
    <path
       style="fill:#ff0000;fill-opacity:1"
       d="M 632.44688,678.36229 C 517.48447,556.88862 449.36828,394.33856 443.34538,227.09714 c -0.81889,-22.73873 -0.66941,-25.80939 1.25644,-25.80939 1.82575,0 2.3399,3.3204 3.1205,20.15254 3.49538,75.37067 13.92504,132.93831 36.06402,199.05925 31.8643,95.16686 86.65445,186.68151 152.56245,254.82136 11.61473,12.00805 14.48451,16.69895 10.21596,16.69895 -0.65582,0 -7.00886,-6.1459 -14.11787,-13.65756 z"
       id="path3623"
       inkscape:connector-curvature="0" />
    <path
       style="fill:#ffff00;stroke:#ffff00;stroke-width:1px;stroke-linecap:butt;stroke-linejoin:miter;stroke-opacity:1"
       d=""
       id="path3366"
       inkscape:connector-curvature="0" />
    <path
       style="fill:#a0a0a0;stroke:#a0a0a0;stroke-width:1px;stroke-linecap:butt;stroke-linejoin:miter;stroke-opacity:1"
       d="M 60.877181,539.78151 C 30.978268,465.17655 12.21444,389.45248 4.5857025,312.60934 2.0229488,286.7951 1.3725128,276.18566 0.89004917,252.32849 l -0.43256968,-21.38998 3.17953761,0 3.1795375,0 0.4346083,21.38998 C 9.150294,345.79747 29.83648,446.21509 65.216869,533.71327 l 2.484148,6.14347 -1.87151,0.6785 c -1.02933,0.37317 -2.356197,0.8765 -2.948593,1.11849 -0.757067,0.30927 -1.352402,-0.24699 -2.003733,-1.87222 z"
       id="path4172"
       inkscape:connector-curvature="0" />
    <path
       style="fill:#a0a0a0;stroke:#a0a0a0;stroke-width:1px;stroke-linecap:butt;stroke-linejoin:miter;stroke-opacity:1"
       d="M 175.18338,491.68413 C 156.751,443.76993 146.77785,410.3974 138.25628,368.11722 129.76094,325.96716 124.41563,276.08867 124.41563,238.96657 l 0,-8.73517 2.40888,0 2.40888,0 0.39577,6.54074 c 0.21767,3.5974 0.56122,12.74653 0.76344,20.33139 0.9918,37.20065 6.74681,82.43823 15.56217,122.3274 7.99441,36.17442 21.04977,78.5107 33.49135,108.60667 l 2.07341,5.01553 -2.26243,0.81811 c -3.00794,1.08768 -2.76342,1.21895 -4.07372,-2.18711 z"
       id="path4174"
       inkscape:connector-curvature="0" />
    <path
       inkscape:connector-curvature="0"
       style="fill:#ffb300;fill-opacity:1;stroke:#000000;stroke-width:24.50286865;stroke-miterlimit:4;stroke-dasharray:none;stroke-opacity:1"
       d="m 822.04721,-480.26825 c -188.45832,1e-4 -369.19791,74.86492 -502.45806,208.12511 -133.26024,133.26018 -208.12503,313.999747 -208.12512,502.4581 9e-5,188.45832 74.86488,369.19792 208.12512,502.4581 133.26015,133.26019 313.99974,208.12503 502.45806,208.12511 188.45839,-8e-5 369.19789,-74.86492 502.45819,-208.12511 133.2601,-133.26018 208.125,-313.9997 208.1251,-502.4581 -10e-5,-188.458371 -74.865,-369.19796 -208.1251,-502.45813 -133.2602,-133.26019 -313.9998,-208.12501 -502.45819,-208.12508 z m 0,6.12511 c 186.83379,-7e-5 366.01559,74.21938 498.12719,206.33091 132.1115,132.11154 206.3308,311.293266 206.3309,498.12719 0,59.7913 -7.6012,118.7989 -22.2685,175.73083 -31.1645,120.96725 -94.2297,232.56369 -184.0624,322.39632 C 1188.0628,860.55365 1008.881,934.77316 822.04721,934.77307 635.21328,934.77316 456.03161,860.55365 323.92,728.44211 191.80847,596.33065 117.58905,417.14893 117.58913,230.31496 117.58905,43.481036 191.80847,-135.70069 323.92,-267.81223 456.03161,-399.92376 635.21328,-474.14321 822.04721,-474.14314 Z"
       id="path3336-6-3-6"
       sodipodi:nodetypes="sssssssssssssssssss" />
    <path
       inkscape:connector-curvature="0"
       style="fill:#ffb300;fill-opacity:1;stroke:#000000;stroke-width:27.86600876;stroke-miterlimit:4;stroke-dasharray:none;stroke-opacity:1"
       d="m 822.04721,-577.79929 c -214.32514,1.1e-4 -419.87213,85.1405 -571.42288,236.6913 C 99.073468,-189.55719 13.933102,15.989764 13.933004,230.31496 c 9.8e-5,214.32519 85.140464,419.87215 236.691326,571.42294 151.55075,151.5508 357.09774,236.6912 571.42288,236.6913 214.32519,-10e-5 419.87209,-85.14046 571.42299,-236.69126 151.5508,-151.5508 236.6912,-357.09777 236.6913,-571.42298 -10e-5,-214.325212 -85.1405,-419.87219 -236.6913,-571.42298 -151.5508,-151.55081 -357.0978,-236.69119 -571.42299,-236.69127 z m 0,6.96581 c 212.47769,-8e-5 416.25299,84.40636 566.49759,234.65085 150.2445,150.24449 234.6507,354.019783 234.6508,566.49759 0,67.99795 -8.6445,135.10464 -25.3249,199.85079 -35.442,137.57052 -107.1632,264.48412 -209.3259,366.6468 C 1238.3002,947.05704 1034.5249,1031.4635 822.04721,1031.4634 609.56942,1031.4635 405.79418,947.05704 255.54961,796.81255 105.30512,646.56806 20.898706,442.79276 20.898804,230.31496 20.898706,17.837153 105.30512,-185.93814 255.54961,-336.18263 405.79418,-486.42712 609.56942,-570.83356 822.04721,-570.83348 Z"
       id="path3336-6-3"
       sodipodi:nodetypes="sssssssssssssssssss" />
    <path
       style="fill:#ff0000;fill-rule:evenodd;stroke:#ff0000;stroke-width:0.37507299px;stroke-linecap:butt;stroke-linejoin:miter;stroke-opacity:1;fill-opacity:1"
       d="M 1644.0918,226.95917 0.00262387,230.12744"
       id="path3417"
       inkscape:connector-curvature="0" />
    <path
       style="fill:#ff0000;fill-rule:evenodd;stroke:#ff0000;stroke-width:1.03501761px;stroke-linecap:butt;stroke-linejoin:miter;stroke-opacity:1;fill-opacity:1"
       d="M 823.77312,229.62039 61.524567,543.22898"
       id="path3402"
       inkscape:connector-curvature="0" />
    <path
       style="fill:#a0a0a0;stroke:none;stroke-width:1px;stroke-linecap:butt;stroke-linejoin:miter;stroke-opacity:1"
       d="m 152.97343,503.30666 c -0.20707,-0.70259 -2.66489,-7.16409 -5.4618,-14.3589 -29.23854,-75.2135 -45.22709,-156.36524 -47.819701,-242.71441 l -0.482998,-16.08668 15.310309,0 15.31032,0 0.007,12.9047 c 0.02,37.78909 5.81571,89.12067 14.75107,130.6483 8.80387,40.91651 19.63644,76.39262 35.33242,115.71187 l 1.45536,3.64576 -13.2217,5.4592 c -7.27194,3.00255 -13.57763,5.59607 -14.01266,5.76339 -0.43502,0.16731 -0.96038,-0.27065 -1.16746,-0.97323 l -2e-5,0 z"
       id="path4233"
       inkscape:connector-curvature="0" />
    <path
       style="fill:#a0a0a0;stroke:none;stroke-width:1px;stroke-linecap:butt;stroke-linejoin:miter;stroke-opacity:1"
       d="M 56.466455,528.72251 C 32.551519,466.60199 17.383278,408.48501 8.2524132,343.99087 3.7240638,312.00572 0.43289175,268.79262 0.43008122,241.28361 l -0.001066,-10.42983 16.97056239,0 16.970563,0 0.0071,5.48008 c 0.01315,10.11365 1.418903,40.7055 2.510074,54.624 5.980944,76.29033 23.615117,154.28076 50.202856,222.03153 2.976113,7.58372 5.457273,14.41245 5.513686,15.17495 0.08592,1.16136 -2.307608,2.38918 -14.746677,7.56471 -8.167082,3.39809 -15.172655,6.19485 -15.567939,6.21502 -0.395284,0.0202 -3.01555,-5.92952 -5.822812,-13.22156 z"
       id="path4235"
       inkscape:connector-curvature="0" />
  </g>
</svg>
