<?xml version="1.0" encoding="UTF-8" standalone="no"?>
<!-- Created with Inkscape (http://www.inkscape.org/) -->

<svg
   xmlns:dc="http://purl.org/dc/elements/1.1/"
   xmlns:cc="http://creativecommons.org/ns#"
   xmlns:rdf="http://www.w3.org/1999/02/22-rdf-syntax-ns#"
   xmlns:svg="http://www.w3.org/2000/svg"
   xmlns="http://www.w3.org/2000/svg"
   xmlns:sodipodi="http://sodipodi.sourceforge.net/DTD/sodipodi-0.dtd"
   xmlns:inkscape="http://www.inkscape.org/namespaces/inkscape"
   width="210mm"
   height="297mm"
   viewBox="0 0 744.09448819 1052.3622047"
   id="svg2"
   version="1.1"
   inkscape:version="0.91 r13725"
   sodipodi:docname="circuit2.svg">
  <defs
     id="defs4" />
  <sodipodi:namedview
     id="base"
     pagecolor="#ffffff"
     bordercolor="#666666"
     borderopacity="1.0"
     inkscape:pageopacity="0.0"
     inkscape:pageshadow="2"
     inkscape:zoom="0.35355339"
     inkscape:cx="465.20315"
     inkscape:cy="368.974"
     inkscape:document-units="px"
     inkscape:current-layer="layer1"
     showgrid="false"
     inkscape:window-width="1855"
     inkscape:window-height="1056"
     inkscape:window-x="65"
     inkscape:window-y="24"
     inkscape:window-maximized="1" />
  <metadata
     id="metadata7">
    <rdf:RDF>
      <cc:Work
         rdf:about="">
        <dc:format>image/svg+xml</dc:format>
        <dc:type
           rdf:resource="http://purl.org/dc/dcmitype/StillImage" />
      </cc:Work>
    </rdf:RDF>
  </metadata>
  <g
     inkscape:label="Calque 1"
     inkscape:groupmode="layer"
     id="layer1">
    <path
       style="fill:#ffb300;fill-opacity:1"
       d="M 822.04688 -591.73242 A 822.04724 822.04724 0 0 0 0 230.31445 A 822.04724 822.04724 0 0 0 822.04688 1052.3613 A 822.04724 822.04724 0 0 0 1644.0938 230.31445 A 822.04724 822.04724 0 0 0 822.04688 -591.73242 z M 822.04688 -584.64648 A 814.96063 814.96063 0 0 1 1637.0078 230.31445 A 814.96063 814.96063 0 0 1 822.04688 1045.2754 A 814.96063 814.96063 0 0 1 7.0859375 230.31445 A 814.96063 814.96063 0 0 1 822.04688 -584.64648 z "
       id="path3336" />
    <path
       inkscape:connector-curvature="0"
       style="fill:#ffb300;fill-opacity:1"
       d="M 822.04722,-467.71653 A 698.03181,698.03183 0 0 0 124.01575,230.31498 698.03181,698.03183 0 0 0 822.04722,928.34646 698.03181,698.03183 0 0 0 1520.0787,230.31498 698.03181,698.03183 0 0 0 822.04722,-467.71653 Z m 0,6.01691 A 692.0143,692.01431 0 0 1 1514.0617,230.31498 692.0143,692.01431 0 0 1 822.04722,922.32955 692.0143,692.01431 0 0 1 130.03267,230.31498 692.0143,692.01431 0 0 1 822.04722,-461.69962 Z"
       id="path3336-6" />
    <path
       style="fill:none;fill-rule:evenodd;stroke:#000000;stroke-width:0.30919388px;stroke-linecap:butt;stroke-linejoin:miter;stroke-opacity:1"
       d="m 822.20181,-591.73202 3.23732,1643.93962 0,0"
       id="path3415"
       inkscape:connector-curvature="0" />
    <path
       style="fill:none;fill-rule:evenodd;stroke:#000000;stroke-width:0.37507299px;stroke-linecap:butt;stroke-linejoin:miter;stroke-opacity:1"
       d="M 1644.0918,226.95917 0.00262387,230.12744"
       id="path3417"
       inkscape:connector-curvature="0" />
    <rect
       style="fill:#ffb300;fill-opacity:1"
       id="rect3423"
       width="602.14221"
       height="592.70428"
       x="-1100.4668"
       y="-578.51837" />
    <path
       style="fill:none;fill-rule:evenodd;stroke:#000000;stroke-width:0.99618793px;stroke-linecap:butt;stroke-linejoin:miter;stroke-opacity:1"
       d="M 0.35220432,1052.0101 821.69504,230.66589"
       id="path3619"
       inkscape:connector-curvature="0" />
    <path
       style="fill:#ff0000;fill-opacity:1"
       d="M 593.34903,799.24094 C 537.58202,742.15072 486.07918,668.62291 449.09417,593.29609 397.16013,487.52277 369.87701,378.15599 364.99643,256.18293 c -0.95675,-23.91066 -0.91899,-24.39518 1.90128,-24.39518 2.72277,0 2.92608,1.12109 3.78286,20.85965 3.88574,89.52062 16.26745,158.67382 42.47623,237.23432 37.56759,112.60844 100.6241,217.73264 180.76299,301.35765 11.38882,11.88425 14.63562,16.08346 13.39496,17.32412 -0.90068,0.90068 -2.00255,1.6376 -2.4486,1.6376 -0.44604,0 -5.62875,-4.93207 -11.51712,-10.96015 z"
       id="path3621"
       inkscape:connector-curvature="0" />
    <path
       style="fill:#ff0000;fill-opacity:1"
       d="M 632.44688,678.36229 C 517.48447,556.88862 449.36828,394.33856 443.34538,227.09714 c -0.81889,-22.73873 -0.66941,-25.80939 1.25644,-25.80939 1.82575,0 2.3399,3.3204 3.1205,20.15254 3.49538,75.37067 13.92504,132.93831 36.06402,199.05925 31.8643,95.16686 86.65445,186.68151 152.56245,254.82136 11.61473,12.00805 14.48451,16.69895 10.21596,16.69895 -0.65582,0 -7.00886,-6.1459 -14.11787,-13.65756 z"
       id="path3623"
       inkscape:connector-curvature="0" />
    <path
       style="fill:none;fill-rule:evenodd;stroke:#000000;stroke-width:1.03501761px;stroke-linecap:butt;stroke-linejoin:miter;stroke-opacity:1"
       d="M 823.77312,229.62039 61.524567,543.22898"
       id="path3402"
       inkscape:connector-curvature="0" />
    <path
       style="fill:#ffff00;stroke:#ffff00;stroke-width:1px;stroke-linecap:butt;stroke-linejoin:miter;stroke-opacity:1"
       d=""
       id="path3366"
       inkscape:connector-curvature="0" />
    <path
       style="fill:#a0a0a0;stroke:#a0a0a0;stroke-width:1px;stroke-linecap:butt;stroke-linejoin:miter;stroke-opacity:1"
       d="M 60.877181,539.78151 C 30.978268,465.17655 12.21444,389.45248 4.5857025,312.60934 2.0229488,286.7951 1.3725128,276.18566 0.89004917,252.32849 l -0.43256968,-21.38998 3.17953761,0 3.1795375,0 0.4346083,21.38998 C 9.150294,345.79747 29.83648,446.21509 65.216869,533.71327 l 2.484148,6.14347 -1.87151,0.6785 c -1.02933,0.37317 -2.356197,0.8765 -2.948593,1.11849 -0.757067,0.30927 -1.352402,-0.24699 -2.003733,-1.87222 z"
       id="path4172"
       inkscape:connector-curvature="0" />
    <path
       style="fill:#a0a0a0;stroke:#a0a0a0;stroke-width:1px;stroke-linecap:butt;stroke-linejoin:miter;stroke-opacity:1"
       d="M 175.18338,491.68413 C 156.751,443.76993 146.77785,410.3974 138.25628,368.11722 129.76094,325.96716 124.41563,276.08867 124.41563,238.96657 l 0,-8.73517 2.40888,0 2.40888,0 0.39577,6.54074 c 0.21767,3.5974 0.56122,12.74653 0.76344,20.33139 0.9918,37.20065 6.74681,82.43823 15.56217,122.3274 7.99441,36.17442 21.04977,78.5107 33.49135,108.60667 l 2.07341,5.01553 -2.26243,0.81811 c -3.00794,1.08768 -2.76342,1.21895 -4.07372,-2.18711 z"
       id="path4174"
       inkscape:connector-curvature="0" />
  </g>
</svg>
