solid OpenSCAD_Model
  facet normal -1 0 0
    outer loop
      vertex 0 0 0
      vertex 0 10 5
      vertex 0 10 0
    endloop
  endfacet
  facet normal -1 -0 0
    outer loop
      vertex 0 10 5
      vertex 0 0 0
      vertex 0 0 5
    endloop
  endfacet
  facet normal -0 0 1
    outer loop
      vertex 0 10 5
      vertex 5 0 5
      vertex 5 10 5
    endloop
  endfacet
  facet normal 0 0 1
    outer loop
      vertex 5 0 5
      vertex 0 10 5
      vertex 0 0 5
    endloop
  endfacet
  facet normal -0 0 1
    outer loop
      vertex 43 10 5
      vertex 48 0 5
      vertex 48 10 5
    endloop
  endfacet
  facet normal 0 0 1
    outer loop
      vertex 48 0 5
      vertex 43 10 5
      vertex 43 0 5
    endloop
  endfacet
  facet normal -0 0 1
    outer loop
      vertex 11 10 5
      vertex 37 0 5
      vertex 37 10 5
    endloop
  endfacet
  facet normal 0 0 1
    outer loop
      vertex 37 0 5
      vertex 11 10 5
      vertex 11 0 5
    endloop
  endfacet
  facet normal 1 -0 0
    outer loop
      vertex 48 0 5
      vertex 48 10 0
      vertex 48 10 5
    endloop
  endfacet
  facet normal 1 0 0
    outer loop
      vertex 48 10 0
      vertex 48 0 5
      vertex 48 0 0
    endloop
  endfacet
  facet normal 0 0 -1
    outer loop
      vertex 48 0 0
      vertex 47 1.5 0
      vertex 48 10 0
    endloop
  endfacet
  facet normal 0 0 -1
    outer loop
      vertex 48 0 0
      vertex 1 1.5 0
      vertex 47 1.5 0
    endloop
  endfacet
  facet normal -0 0 -1
    outer loop
      vertex 1 1.5 0
      vertex 0 0 0
      vertex 1 8.5 0
    endloop
  endfacet
  facet normal 0 0 -1
    outer loop
      vertex 0 0 0
      vertex 1 1.5 0
      vertex 48 0 0
    endloop
  endfacet
  facet normal 0 0 -1
    outer loop
      vertex 47 8.5 0
      vertex 48 10 0
      vertex 47 1.5 0
    endloop
  endfacet
  facet normal 0 0 -1
    outer loop
      vertex 1 8.5 0
      vertex 48 10 0
      vertex 47 8.5 0
    endloop
  endfacet
  facet normal 0 0 -1
    outer loop
      vertex 1 8.5 0
      vertex 0 10 0
      vertex 48 10 0
    endloop
  endfacet
  facet normal 0 0 -1
    outer loop
      vertex 0 10 0
      vertex 1 8.5 0
      vertex 0 0 0
    endloop
  endfacet
  facet normal 0 -1 0
    outer loop
      vertex 37 0 7.5
      vertex 37 0 5
      vertex 41 0 7.5
    endloop
  endfacet
  facet normal 0 -1 0
    outer loop
      vertex 41 0 7.5
      vertex 43 0 11.5
      vertex 41 0 11.5
    endloop
  endfacet
  facet normal 0 -1 0
    outer loop
      vertex 41 0 7.5
      vertex 43 0 5
      vertex 43 0 11.5
    endloop
  endfacet
  facet normal 0 -1 0
    outer loop
      vertex 43 0 5
      vertex 41 0 7.5
      vertex 37 0 5
    endloop
  endfacet
  facet normal 0 -1 0
    outer loop
      vertex 0 0 0
      vertex 5 0 5
      vertex 0 0 5
    endloop
  endfacet
  facet normal 0 -1 -0
    outer loop
      vertex 5 0 5
      vertex 0 0 0
      vertex 11 0 5
    endloop
  endfacet
  facet normal 0 -1 -0
    outer loop
      vertex 11 0 5
      vertex 0 0 0
      vertex 37 0 5
    endloop
  endfacet
  facet normal 0 -1 0
    outer loop
      vertex 48 0 0
      vertex 37 0 5
      vertex 0 0 0
    endloop
  endfacet
  facet normal 0 -1 0
    outer loop
      vertex 37 0 5
      vertex 48 0 0
      vertex 43 0 5
    endloop
  endfacet
  facet normal 0 -1 0
    outer loop
      vertex 43 0 5
      vertex 48 0 0
      vertex 48 0 5
    endloop
  endfacet
  facet normal 0 -1 0
    outer loop
      vertex 5 0 11.5
      vertex 7 0 7.5
      vertex 7 0 11.5
    endloop
  endfacet
  facet normal 0 -1 0
    outer loop
      vertex 5 0 5
      vertex 7 0 7.5
      vertex 5 0 11.5
    endloop
  endfacet
  facet normal 0 -1 0
    outer loop
      vertex 11 0 5
      vertex 7 0 7.5
      vertex 5 0 5
    endloop
  endfacet
  facet normal 0 -1 0
    outer loop
      vertex 7 0 7.5
      vertex 11 0 5
      vertex 11 0 7.5
    endloop
  endfacet
  facet normal 0 1 0
    outer loop
      vertex 48 10 5
      vertex 43 10 3.5
      vertex 43 10 5
    endloop
  endfacet
  facet normal 0 1 0
    outer loop
      vertex 48 10 0
      vertex 37 10 3.5
      vertex 43 10 3.5
    endloop
  endfacet
  facet normal 0 1 0
    outer loop
      vertex 37 10 3.5
      vertex 48 10 0
      vertex 11 10 3.5
    endloop
  endfacet
  facet normal 0 1 0
    outer loop
      vertex 0 10 0
      vertex 11 10 3.5
      vertex 48 10 0
    endloop
  endfacet
  facet normal 0 1 -0
    outer loop
      vertex 48 10 0
      vertex 43 10 3.5
      vertex 48 10 5
    endloop
  endfacet
  facet normal 0 1 -0
    outer loop
      vertex 37 10 3.5
      vertex 11 10 5
      vertex 37 10 5
    endloop
  endfacet
  facet normal 0 1 0
    outer loop
      vertex 11 10 5
      vertex 37 10 3.5
      vertex 11 10 3.5
    endloop
  endfacet
  facet normal 0 1 -0
    outer loop
      vertex 5 10 3.5
      vertex 0 10 5
      vertex 5 10 5
    endloop
  endfacet
  facet normal 0 1 0
    outer loop
      vertex 5 10 3.5
      vertex 0 10 0
      vertex 0 10 5
    endloop
  endfacet
  facet normal 0 1 0
    outer loop
      vertex 11 10 3.5
      vertex 0 10 0
      vertex 5 10 3.5
    endloop
  endfacet
  facet normal 1 -0 0
    outer loop
      vertex 1 1.5 4
      vertex 1 8.5 0
      vertex 1 8.5 4
    endloop
  endfacet
  facet normal 1 0 0
    outer loop
      vertex 1 8.5 0
      vertex 1 1.5 4
      vertex 1 1.5 0
    endloop
  endfacet
  facet normal 0 0 -1
    outer loop
      vertex 1 1.5 4
      vertex 5 8.5 4
      vertex 5 1.5 4
    endloop
  endfacet
  facet normal -0 0 -1
    outer loop
      vertex 5 8.5 4
      vertex 1 1.5 4
      vertex 1 8.5 4
    endloop
  endfacet
  facet normal 0 0 -1
    outer loop
      vertex 43 1.5 4
      vertex 47 8.5 4
      vertex 47 1.5 4
    endloop
  endfacet
  facet normal -0 0 -1
    outer loop
      vertex 47 8.5 4
      vertex 43 1.5 4
      vertex 43 8.5 4
    endloop
  endfacet
  facet normal 0 0 -1
    outer loop
      vertex 11 1.5 4
      vertex 37 8.5 4
      vertex 37 1.5 4
    endloop
  endfacet
  facet normal -0 0 -1
    outer loop
      vertex 37 8.5 4
      vertex 11 1.5 4
      vertex 11 8.5 4
    endloop
  endfacet
  facet normal -1 0 0
    outer loop
      vertex 47 1.5 0
      vertex 47 8.5 4
      vertex 47 8.5 0
    endloop
  endfacet
  facet normal -1 -0 0
    outer loop
      vertex 47 8.5 4
      vertex 47 1.5 0
      vertex 47 1.5 4
    endloop
  endfacet
  facet normal 0 1 0
    outer loop
      vertex 47 1.5 4
      vertex 43 1.5 3.5
      vertex 43 1.5 4
    endloop
  endfacet
  facet normal 0 1 0
    outer loop
      vertex 47 1.5 0
      vertex 37 1.5 3.5
      vertex 43 1.5 3.5
    endloop
  endfacet
  facet normal 0 1 0
    outer loop
      vertex 37 1.5 3.5
      vertex 47 1.5 0
      vertex 11 1.5 3.5
    endloop
  endfacet
  facet normal 0 1 0
    outer loop
      vertex 1 1.5 0
      vertex 11 1.5 3.5
      vertex 47 1.5 0
    endloop
  endfacet
  facet normal 0 1 -0
    outer loop
      vertex 47 1.5 0
      vertex 43 1.5 3.5
      vertex 47 1.5 4
    endloop
  endfacet
  facet normal 0 1 -0
    outer loop
      vertex 37 1.5 3.5
      vertex 11 1.5 4
      vertex 37 1.5 4
    endloop
  endfacet
  facet normal 0 1 0
    outer loop
      vertex 11 1.5 4
      vertex 37 1.5 3.5
      vertex 11 1.5 3.5
    endloop
  endfacet
  facet normal 0 1 -0
    outer loop
      vertex 5 1.5 3.5
      vertex 1 1.5 4
      vertex 5 1.5 4
    endloop
  endfacet
  facet normal 0 1 0
    outer loop
      vertex 5 1.5 3.5
      vertex 1 1.5 0
      vertex 1 1.5 4
    endloop
  endfacet
  facet normal 0 1 0
    outer loop
      vertex 11 1.5 3.5
      vertex 1 1.5 0
      vertex 5 1.5 3.5
    endloop
  endfacet
  facet normal 0 -1 0
    outer loop
      vertex 1 8.5 4
      vertex 5 8.5 3.5
      vertex 5 8.5 4
    endloop
  endfacet
  facet normal 0 -1 0
    outer loop
      vertex 1 8.5 0
      vertex 11 8.5 3.5
      vertex 5 8.5 3.5
    endloop
  endfacet
  facet normal 0 -1 -0
    outer loop
      vertex 11 8.5 3.5
      vertex 1 8.5 0
      vertex 37 8.5 3.5
    endloop
  endfacet
  facet normal 0 -1 0
    outer loop
      vertex 47 8.5 0
      vertex 37 8.5 3.5
      vertex 1 8.5 0
    endloop
  endfacet
  facet normal 0 -1 0
    outer loop
      vertex 1 8.5 0
      vertex 5 8.5 3.5
      vertex 1 8.5 4
    endloop
  endfacet
  facet normal 0 -1 0
    outer loop
      vertex 11 8.5 3.5
      vertex 37 8.5 4
      vertex 11 8.5 4
    endloop
  endfacet
  facet normal 0 -1 -0
    outer loop
      vertex 37 8.5 4
      vertex 11 8.5 3.5
      vertex 37 8.5 3.5
    endloop
  endfacet
  facet normal 0 -1 0
    outer loop
      vertex 43 8.5 3.5
      vertex 47 8.5 4
      vertex 43 8.5 4
    endloop
  endfacet
  facet normal 0 -1 0
    outer loop
      vertex 43 8.5 3.5
      vertex 47 8.5 0
      vertex 47 8.5 4
    endloop
  endfacet
  facet normal 0 -1 0
    outer loop
      vertex 37 8.5 3.5
      vertex 47 8.5 0
      vertex 43 8.5 3.5
    endloop
  endfacet
  facet normal -1 0 0
    outer loop
      vertex 0 32 0
      vertex 0 42 5
      vertex 0 42 0
    endloop
  endfacet
  facet normal -1 -0 0
    outer loop
      vertex 0 42 5
      vertex 0 32 0
      vertex 0 32 5
    endloop
  endfacet
  facet normal -0 0 1
    outer loop
      vertex 0 42 5
      vertex 5 32 5
      vertex 5 42 5
    endloop
  endfacet
  facet normal 0 0 1
    outer loop
      vertex 5 32 5
      vertex 0 42 5
      vertex 0 32 5
    endloop
  endfacet
  facet normal -0 0 1
    outer loop
      vertex 43 42 5
      vertex 48 32 5
      vertex 48 42 5
    endloop
  endfacet
  facet normal 0 0 1
    outer loop
      vertex 48 32 5
      vertex 43 42 5
      vertex 43 32 5
    endloop
  endfacet
  facet normal -0 0 1
    outer loop
      vertex 11 42 5
      vertex 37 32 5
      vertex 37 42 5
    endloop
  endfacet
  facet normal 0 0 1
    outer loop
      vertex 37 32 5
      vertex 11 42 5
      vertex 11 32 5
    endloop
  endfacet
  facet normal 1 -0 0
    outer loop
      vertex 48 32 5
      vertex 48 42 0
      vertex 48 42 5
    endloop
  endfacet
  facet normal 1 0 0
    outer loop
      vertex 48 42 0
      vertex 48 32 5
      vertex 48 32 0
    endloop
  endfacet
  facet normal 0 1 0
    outer loop
      vertex 48 42 5
      vertex 43 42 3.5
      vertex 43 42 5
    endloop
  endfacet
  facet normal 0 1 0
    outer loop
      vertex 48 42 0
      vertex 37 42 3.5
      vertex 43 42 3.5
    endloop
  endfacet
  facet normal 0 1 0
    outer loop
      vertex 37 42 3.5
      vertex 48 42 0
      vertex 11 42 3.5
    endloop
  endfacet
  facet normal 0 1 0
    outer loop
      vertex 0 42 0
      vertex 11 42 3.5
      vertex 48 42 0
    endloop
  endfacet
  facet normal 0 1 -0
    outer loop
      vertex 48 42 0
      vertex 43 42 3.5
      vertex 48 42 5
    endloop
  endfacet
  facet normal 0 1 -0
    outer loop
      vertex 37 42 3.5
      vertex 11 42 5
      vertex 37 42 5
    endloop
  endfacet
  facet normal 0 1 0
    outer loop
      vertex 11 42 5
      vertex 37 42 3.5
      vertex 11 42 3.5
    endloop
  endfacet
  facet normal 0 1 -0
    outer loop
      vertex 5 42 3.5
      vertex 0 42 5
      vertex 5 42 5
    endloop
  endfacet
  facet normal 0 1 0
    outer loop
      vertex 5 42 3.5
      vertex 0 42 0
      vertex 0 42 5
    endloop
  endfacet
  facet normal 0 1 0
    outer loop
      vertex 11 42 3.5
      vertex 0 42 0
      vertex 5 42 3.5
    endloop
  endfacet
  facet normal 0 0 -1
    outer loop
      vertex 48 32 0
      vertex 47 33.5 0
      vertex 48 42 0
    endloop
  endfacet
  facet normal 0 0 -1
    outer loop
      vertex 48 32 0
      vertex 1 33.5 0
      vertex 47 33.5 0
    endloop
  endfacet
  facet normal -0 0 -1
    outer loop
      vertex 1 33.5 0
      vertex 0 32 0
      vertex 1 40.5 0
    endloop
  endfacet
  facet normal 0 0 -1
    outer loop
      vertex 0 32 0
      vertex 1 33.5 0
      vertex 48 32 0
    endloop
  endfacet
  facet normal 0 0 -1
    outer loop
      vertex 47 40.5 0
      vertex 48 42 0
      vertex 47 33.5 0
    endloop
  endfacet
  facet normal 0 0 -1
    outer loop
      vertex 1 40.5 0
      vertex 48 42 0
      vertex 47 40.5 0
    endloop
  endfacet
  facet normal 0 0 -1
    outer loop
      vertex 1 40.5 0
      vertex 0 42 0
      vertex 48 42 0
    endloop
  endfacet
  facet normal 0 0 -1
    outer loop
      vertex 0 42 0
      vertex 1 40.5 0
      vertex 0 32 0
    endloop
  endfacet
  facet normal 0 -1 0
    outer loop
      vertex 0 32 5
      vertex 5 32 3.5
      vertex 5 32 5
    endloop
  endfacet
  facet normal 0 -1 0
    outer loop
      vertex 0 32 0
      vertex 11 32 3.5
      vertex 5 32 3.5
    endloop
  endfacet
  facet normal 0 -1 -0
    outer loop
      vertex 11 32 3.5
      vertex 0 32 0
      vertex 37 32 3.5
    endloop
  endfacet
  facet normal 0 -1 0
    outer loop
      vertex 48 32 0
      vertex 37 32 3.5
      vertex 0 32 0
    endloop
  endfacet
  facet normal 0 -1 0
    outer loop
      vertex 0 32 0
      vertex 5 32 3.5
      vertex 0 32 5
    endloop
  endfacet
  facet normal 0 -1 0
    outer loop
      vertex 11 32 3.5
      vertex 37 32 5
      vertex 11 32 5
    endloop
  endfacet
  facet normal 0 -1 -0
    outer loop
      vertex 37 32 5
      vertex 11 32 3.5
      vertex 37 32 3.5
    endloop
  endfacet
  facet normal 0 -1 0
    outer loop
      vertex 43 32 3.5
      vertex 48 32 5
      vertex 43 32 5
    endloop
  endfacet
  facet normal 0 -1 0
    outer loop
      vertex 43 32 3.5
      vertex 48 32 0
      vertex 48 32 5
    endloop
  endfacet
  facet normal 0 -1 0
    outer loop
      vertex 37 32 3.5
      vertex 48 32 0
      vertex 43 32 3.5
    endloop
  endfacet
  facet normal 1 -0 0
    outer loop
      vertex 1 33.5 4
      vertex 1 40.5 0
      vertex 1 40.5 4
    endloop
  endfacet
  facet normal 1 0 0
    outer loop
      vertex 1 40.5 0
      vertex 1 33.5 4
      vertex 1 33.5 0
    endloop
  endfacet
  facet normal 0 0 -1
    outer loop
      vertex 1 33.5 4
      vertex 5 40.5 4
      vertex 5 33.5 4
    endloop
  endfacet
  facet normal -0 0 -1
    outer loop
      vertex 5 40.5 4
      vertex 1 33.5 4
      vertex 1 40.5 4
    endloop
  endfacet
  facet normal 0 0 -1
    outer loop
      vertex 43 33.5 4
      vertex 47 40.5 4
      vertex 47 33.5 4
    endloop
  endfacet
  facet normal -0 0 -1
    outer loop
      vertex 47 40.5 4
      vertex 43 33.5 4
      vertex 43 40.5 4
    endloop
  endfacet
  facet normal 0 0 -1
    outer loop
      vertex 11 33.5 4
      vertex 37 40.5 4
      vertex 37 33.5 4
    endloop
  endfacet
  facet normal -0 0 -1
    outer loop
      vertex 37 40.5 4
      vertex 11 33.5 4
      vertex 11 40.5 4
    endloop
  endfacet
  facet normal -1 0 0
    outer loop
      vertex 47 33.5 0
      vertex 47 40.5 4
      vertex 47 40.5 0
    endloop
  endfacet
  facet normal -1 -0 0
    outer loop
      vertex 47 40.5 4
      vertex 47 33.5 0
      vertex 47 33.5 4
    endloop
  endfacet
  facet normal 0 -1 0
    outer loop
      vertex 1 40.5 4
      vertex 5 40.5 3.5
      vertex 5 40.5 4
    endloop
  endfacet
  facet normal 0 -1 0
    outer loop
      vertex 1 40.5 0
      vertex 11 40.5 3.5
      vertex 5 40.5 3.5
    endloop
  endfacet
  facet normal 0 -1 -0
    outer loop
      vertex 11 40.5 3.5
      vertex 1 40.5 0
      vertex 37 40.5 3.5
    endloop
  endfacet
  facet normal 0 -1 0
    outer loop
      vertex 47 40.5 0
      vertex 37 40.5 3.5
      vertex 1 40.5 0
    endloop
  endfacet
  facet normal 0 -1 0
    outer loop
      vertex 1 40.5 0
      vertex 5 40.5 3.5
      vertex 1 40.5 4
    endloop
  endfacet
  facet normal 0 -1 0
    outer loop
      vertex 11 40.5 3.5
      vertex 37 40.5 4
      vertex 11 40.5 4
    endloop
  endfacet
  facet normal 0 -1 -0
    outer loop
      vertex 37 40.5 4
      vertex 11 40.5 3.5
      vertex 37 40.5 3.5
    endloop
  endfacet
  facet normal 0 -1 0
    outer loop
      vertex 43 40.5 3.5
      vertex 47 40.5 4
      vertex 43 40.5 4
    endloop
  endfacet
  facet normal 0 -1 0
    outer loop
      vertex 43 40.5 3.5
      vertex 47 40.5 0
      vertex 47 40.5 4
    endloop
  endfacet
  facet normal 0 -1 0
    outer loop
      vertex 37 40.5 3.5
      vertex 47 40.5 0
      vertex 43 40.5 3.5
    endloop
  endfacet
  facet normal 0 1 0
    outer loop
      vertex 47 33.5 4
      vertex 43 33.5 3.5
      vertex 43 33.5 4
    endloop
  endfacet
  facet normal 0 1 0
    outer loop
      vertex 47 33.5 0
      vertex 37 33.5 3.5
      vertex 43 33.5 3.5
    endloop
  endfacet
  facet normal 0 1 0
    outer loop
      vertex 37 33.5 3.5
      vertex 47 33.5 0
      vertex 11 33.5 3.5
    endloop
  endfacet
  facet normal 0 1 0
    outer loop
      vertex 1 33.5 0
      vertex 11 33.5 3.5
      vertex 47 33.5 0
    endloop
  endfacet
  facet normal 0 1 -0
    outer loop
      vertex 47 33.5 0
      vertex 43 33.5 3.5
      vertex 47 33.5 4
    endloop
  endfacet
  facet normal 0 1 -0
    outer loop
      vertex 37 33.5 3.5
      vertex 11 33.5 4
      vertex 37 33.5 4
    endloop
  endfacet
  facet normal 0 1 0
    outer loop
      vertex 11 33.5 4
      vertex 37 33.5 3.5
      vertex 11 33.5 3.5
    endloop
  endfacet
  facet normal 0 1 -0
    outer loop
      vertex 5 33.5 3.5
      vertex 1 33.5 4
      vertex 5 33.5 4
    endloop
  endfacet
  facet normal 0 1 0
    outer loop
      vertex 5 33.5 3.5
      vertex 1 33.5 0
      vertex 1 33.5 4
    endloop
  endfacet
  facet normal 0 1 0
    outer loop
      vertex 11 33.5 3.5
      vertex 1 33.5 0
      vertex 5 33.5 3.5
    endloop
  endfacet
  facet normal -1 0 0
    outer loop
      vertex 0 64 0
      vertex 0 74 5
      vertex 0 74 0
    endloop
  endfacet
  facet normal -1 -0 0
    outer loop
      vertex 0 74 5
      vertex 0 64 0
      vertex 0 64 5
    endloop
  endfacet
  facet normal -0 0 1
    outer loop
      vertex 0 74 5
      vertex 5 64 5
      vertex 5 74 5
    endloop
  endfacet
  facet normal 0 0 1
    outer loop
      vertex 5 64 5
      vertex 0 74 5
      vertex 0 64 5
    endloop
  endfacet
  facet normal -0 0 1
    outer loop
      vertex 43 74 5
      vertex 48 64 5
      vertex 48 74 5
    endloop
  endfacet
  facet normal 0 0 1
    outer loop
      vertex 48 64 5
      vertex 43 74 5
      vertex 43 64 5
    endloop
  endfacet
  facet normal -0 0 1
    outer loop
      vertex 11 74 5
      vertex 37 64 5
      vertex 37 74 5
    endloop
  endfacet
  facet normal 0 0 1
    outer loop
      vertex 37 64 5
      vertex 11 74 5
      vertex 11 64 5
    endloop
  endfacet
  facet normal 1 -0 0
    outer loop
      vertex 48 64 5
      vertex 48 74 0
      vertex 48 74 5
    endloop
  endfacet
  facet normal 1 0 0
    outer loop
      vertex 48 74 0
      vertex 48 64 5
      vertex 48 64 0
    endloop
  endfacet
  facet normal 0 1 0
    outer loop
      vertex 48 74 5
      vertex 43 74 3.5
      vertex 43 74 5
    endloop
  endfacet
  facet normal 0 1 0
    outer loop
      vertex 48 74 0
      vertex 37 74 3.5
      vertex 43 74 3.5
    endloop
  endfacet
  facet normal 0 1 0
    outer loop
      vertex 37 74 3.5
      vertex 48 74 0
      vertex 11 74 3.5
    endloop
  endfacet
  facet normal 0 1 0
    outer loop
      vertex 0 74 0
      vertex 11 74 3.5
      vertex 48 74 0
    endloop
  endfacet
  facet normal 0 1 -0
    outer loop
      vertex 48 74 0
      vertex 43 74 3.5
      vertex 48 74 5
    endloop
  endfacet
  facet normal 0 1 -0
    outer loop
      vertex 37 74 3.5
      vertex 11 74 5
      vertex 37 74 5
    endloop
  endfacet
  facet normal 0 1 0
    outer loop
      vertex 11 74 5
      vertex 37 74 3.5
      vertex 11 74 3.5
    endloop
  endfacet
  facet normal 0 1 -0
    outer loop
      vertex 5 74 3.5
      vertex 0 74 5
      vertex 5 74 5
    endloop
  endfacet
  facet normal 0 1 0
    outer loop
      vertex 5 74 3.5
      vertex 0 74 0
      vertex 0 74 5
    endloop
  endfacet
  facet normal 0 1 0
    outer loop
      vertex 11 74 3.5
      vertex 0 74 0
      vertex 5 74 3.5
    endloop
  endfacet
  facet normal 0 0 -1
    outer loop
      vertex 48 64 0
      vertex 47 65.5 0
      vertex 48 74 0
    endloop
  endfacet
  facet normal 0 0 -1
    outer loop
      vertex 48 64 0
      vertex 1 65.5 0
      vertex 47 65.5 0
    endloop
  endfacet
  facet normal -0 0 -1
    outer loop
      vertex 1 65.5 0
      vertex 0 64 0
      vertex 1 72.5 0
    endloop
  endfacet
  facet normal 0 0 -1
    outer loop
      vertex 0 64 0
      vertex 1 65.5 0
      vertex 48 64 0
    endloop
  endfacet
  facet normal 0 0 -1
    outer loop
      vertex 47 72.5 0
      vertex 48 74 0
      vertex 47 65.5 0
    endloop
  endfacet
  facet normal 0 0 -1
    outer loop
      vertex 1 72.5 0
      vertex 48 74 0
      vertex 47 72.5 0
    endloop
  endfacet
  facet normal 0 0 -1
    outer loop
      vertex 1 72.5 0
      vertex 0 74 0
      vertex 48 74 0
    endloop
  endfacet
  facet normal 0 0 -1
    outer loop
      vertex 0 74 0
      vertex 1 72.5 0
      vertex 0 64 0
    endloop
  endfacet
  facet normal 0 -1 0
    outer loop
      vertex 0 64 5
      vertex 5 64 3.5
      vertex 5 64 5
    endloop
  endfacet
  facet normal 0 -1 0
    outer loop
      vertex 0 64 0
      vertex 11 64 3.5
      vertex 5 64 3.5
    endloop
  endfacet
  facet normal 0 -1 -0
    outer loop
      vertex 11 64 3.5
      vertex 0 64 0
      vertex 37 64 3.5
    endloop
  endfacet
  facet normal 0 -1 0
    outer loop
      vertex 48 64 0
      vertex 37 64 3.5
      vertex 0 64 0
    endloop
  endfacet
  facet normal 0 -1 0
    outer loop
      vertex 0 64 0
      vertex 5 64 3.5
      vertex 0 64 5
    endloop
  endfacet
  facet normal 0 -1 0
    outer loop
      vertex 11 64 3.5
      vertex 37 64 5
      vertex 11 64 5
    endloop
  endfacet
  facet normal 0 -1 -0
    outer loop
      vertex 37 64 5
      vertex 11 64 3.5
      vertex 37 64 3.5
    endloop
  endfacet
  facet normal 0 -1 0
    outer loop
      vertex 43 64 3.5
      vertex 48 64 5
      vertex 43 64 5
    endloop
  endfacet
  facet normal 0 -1 0
    outer loop
      vertex 43 64 3.5
      vertex 48 64 0
      vertex 48 64 5
    endloop
  endfacet
  facet normal 0 -1 0
    outer loop
      vertex 37 64 3.5
      vertex 48 64 0
      vertex 43 64 3.5
    endloop
  endfacet
  facet normal 1 -0 0
    outer loop
      vertex 1 65.5 4
      vertex 1 72.5 0
      vertex 1 72.5 4
    endloop
  endfacet
  facet normal 1 0 0
    outer loop
      vertex 1 72.5 0
      vertex 1 65.5 4
      vertex 1 65.5 0
    endloop
  endfacet
  facet normal 0 0 -1
    outer loop
      vertex 1 65.5 4
      vertex 5 72.5 4
      vertex 5 65.5 4
    endloop
  endfacet
  facet normal -0 0 -1
    outer loop
      vertex 5 72.5 4
      vertex 1 65.5 4
      vertex 1 72.5 4
    endloop
  endfacet
  facet normal 0 0 -1
    outer loop
      vertex 43 65.5 4
      vertex 47 72.5 4
      vertex 47 65.5 4
    endloop
  endfacet
  facet normal -0 0 -1
    outer loop
      vertex 47 72.5 4
      vertex 43 65.5 4
      vertex 43 72.5 4
    endloop
  endfacet
  facet normal 0 0 -1
    outer loop
      vertex 11 65.5 4
      vertex 37 72.5 4
      vertex 37 65.5 4
    endloop
  endfacet
  facet normal -0 0 -1
    outer loop
      vertex 37 72.5 4
      vertex 11 65.5 4
      vertex 11 72.5 4
    endloop
  endfacet
  facet normal -1 0 0
    outer loop
      vertex 47 65.5 0
      vertex 47 72.5 4
      vertex 47 72.5 0
    endloop
  endfacet
  facet normal -1 -0 0
    outer loop
      vertex 47 72.5 4
      vertex 47 65.5 0
      vertex 47 65.5 4
    endloop
  endfacet
  facet normal 0 1 0
    outer loop
      vertex 47 65.5 4
      vertex 43 65.5 3.5
      vertex 43 65.5 4
    endloop
  endfacet
  facet normal 0 1 0
    outer loop
      vertex 47 65.5 0
      vertex 37 65.5 3.5
      vertex 43 65.5 3.5
    endloop
  endfacet
  facet normal 0 1 0
    outer loop
      vertex 37 65.5 3.5
      vertex 47 65.5 0
      vertex 11 65.5 3.5
    endloop
  endfacet
  facet normal 0 1 0
    outer loop
      vertex 1 65.5 0
      vertex 11 65.5 3.5
      vertex 47 65.5 0
    endloop
  endfacet
  facet normal 0 1 -0
    outer loop
      vertex 47 65.5 0
      vertex 43 65.5 3.5
      vertex 47 65.5 4
    endloop
  endfacet
  facet normal 0 1 -0
    outer loop
      vertex 37 65.5 3.5
      vertex 11 65.5 4
      vertex 37 65.5 4
    endloop
  endfacet
  facet normal 0 1 0
    outer loop
      vertex 11 65.5 4
      vertex 37 65.5 3.5
      vertex 11 65.5 3.5
    endloop
  endfacet
  facet normal 0 1 -0
    outer loop
      vertex 5 65.5 3.5
      vertex 1 65.5 4
      vertex 5 65.5 4
    endloop
  endfacet
  facet normal 0 1 0
    outer loop
      vertex 5 65.5 3.5
      vertex 1 65.5 0
      vertex 1 65.5 4
    endloop
  endfacet
  facet normal 0 1 0
    outer loop
      vertex 11 65.5 3.5
      vertex 1 65.5 0
      vertex 5 65.5 3.5
    endloop
  endfacet
  facet normal 0 -1 0
    outer loop
      vertex 1 72.5 4
      vertex 5 72.5 3.5
      vertex 5 72.5 4
    endloop
  endfacet
  facet normal 0 -1 0
    outer loop
      vertex 1 72.5 0
      vertex 11 72.5 3.5
      vertex 5 72.5 3.5
    endloop
  endfacet
  facet normal 0 -1 -0
    outer loop
      vertex 11 72.5 3.5
      vertex 1 72.5 0
      vertex 37 72.5 3.5
    endloop
  endfacet
  facet normal 0 -1 0
    outer loop
      vertex 47 72.5 0
      vertex 37 72.5 3.5
      vertex 1 72.5 0
    endloop
  endfacet
  facet normal 0 -1 0
    outer loop
      vertex 1 72.5 0
      vertex 5 72.5 3.5
      vertex 1 72.5 4
    endloop
  endfacet
  facet normal 0 -1 0
    outer loop
      vertex 11 72.5 3.5
      vertex 37 72.5 4
      vertex 11 72.5 4
    endloop
  endfacet
  facet normal 0 -1 -0
    outer loop
      vertex 37 72.5 4
      vertex 11 72.5 3.5
      vertex 37 72.5 3.5
    endloop
  endfacet
  facet normal 0 -1 0
    outer loop
      vertex 43 72.5 3.5
      vertex 47 72.5 4
      vertex 43 72.5 4
    endloop
  endfacet
  facet normal 0 -1 0
    outer loop
      vertex 43 72.5 3.5
      vertex 47 72.5 0
      vertex 47 72.5 4
    endloop
  endfacet
  facet normal 0 -1 0
    outer loop
      vertex 37 72.5 3.5
      vertex 47 72.5 0
      vertex 43 72.5 3.5
    endloop
  endfacet
  facet normal -1 0 0
    outer loop
      vertex 0 96 0
      vertex 0 106 5
      vertex 0 106 0
    endloop
  endfacet
  facet normal -1 -0 0
    outer loop
      vertex 0 106 5
      vertex 0 96 0
      vertex 0 96 5
    endloop
  endfacet
  facet normal -0 0 1
    outer loop
      vertex 0 106 5
      vertex 5 96 5
      vertex 5 106 5
    endloop
  endfacet
  facet normal 0 0 1
    outer loop
      vertex 5 96 5
      vertex 0 106 5
      vertex 0 96 5
    endloop
  endfacet
  facet normal -0 0 1
    outer loop
      vertex 43 106 5
      vertex 48 96 5
      vertex 48 106 5
    endloop
  endfacet
  facet normal 0 0 1
    outer loop
      vertex 48 96 5
      vertex 43 106 5
      vertex 43 96 5
    endloop
  endfacet
  facet normal -0 0 1
    outer loop
      vertex 11 106 5
      vertex 37 96 5
      vertex 37 106 5
    endloop
  endfacet
  facet normal 0 0 1
    outer loop
      vertex 37 96 5
      vertex 11 106 5
      vertex 11 96 5
    endloop
  endfacet
  facet normal 1 -0 0
    outer loop
      vertex 48 96 5
      vertex 48 106 0
      vertex 48 106 5
    endloop
  endfacet
  facet normal 1 0 0
    outer loop
      vertex 48 106 0
      vertex 48 96 5
      vertex 48 96 0
    endloop
  endfacet
  facet normal 0 1 0
    outer loop
      vertex 48 106 5
      vertex 43 106 3.5
      vertex 43 106 5
    endloop
  endfacet
  facet normal 0 1 0
    outer loop
      vertex 48 106 0
      vertex 37 106 3.5
      vertex 43 106 3.5
    endloop
  endfacet
  facet normal 0 1 0
    outer loop
      vertex 37 106 3.5
      vertex 48 106 0
      vertex 11 106 3.5
    endloop
  endfacet
  facet normal 0 1 0
    outer loop
      vertex 0 106 0
      vertex 11 106 3.5
      vertex 48 106 0
    endloop
  endfacet
  facet normal 0 1 -0
    outer loop
      vertex 48 106 0
      vertex 43 106 3.5
      vertex 48 106 5
    endloop
  endfacet
  facet normal 0 1 -0
    outer loop
      vertex 37 106 3.5
      vertex 11 106 5
      vertex 37 106 5
    endloop
  endfacet
  facet normal 0 1 0
    outer loop
      vertex 11 106 5
      vertex 37 106 3.5
      vertex 11 106 3.5
    endloop
  endfacet
  facet normal 0 1 -0
    outer loop
      vertex 5 106 3.5
      vertex 0 106 5
      vertex 5 106 5
    endloop
  endfacet
  facet normal 0 1 0
    outer loop
      vertex 5 106 3.5
      vertex 0 106 0
      vertex 0 106 5
    endloop
  endfacet
  facet normal 0 1 0
    outer loop
      vertex 11 106 3.5
      vertex 0 106 0
      vertex 5 106 3.5
    endloop
  endfacet
  facet normal 0 0 -1
    outer loop
      vertex 48 96 0
      vertex 47 97.5 0
      vertex 48 106 0
    endloop
  endfacet
  facet normal 0 0 -1
    outer loop
      vertex 48 96 0
      vertex 1 97.5 0
      vertex 47 97.5 0
    endloop
  endfacet
  facet normal -0 0 -1
    outer loop
      vertex 1 97.5 0
      vertex 0 96 0
      vertex 1 104.5 0
    endloop
  endfacet
  facet normal 0 0 -1
    outer loop
      vertex 0 96 0
      vertex 1 97.5 0
      vertex 48 96 0
    endloop
  endfacet
  facet normal 0 0 -1
    outer loop
      vertex 47 104.5 0
      vertex 48 106 0
      vertex 47 97.5 0
    endloop
  endfacet
  facet normal 0 0 -1
    outer loop
      vertex 1 104.5 0
      vertex 48 106 0
      vertex 47 104.5 0
    endloop
  endfacet
  facet normal 0 0 -1
    outer loop
      vertex 1 104.5 0
      vertex 0 106 0
      vertex 48 106 0
    endloop
  endfacet
  facet normal 0 0 -1
    outer loop
      vertex 0 106 0
      vertex 1 104.5 0
      vertex 0 96 0
    endloop
  endfacet
  facet normal 0 -1 0
    outer loop
      vertex 0 96 5
      vertex 5 96 3.5
      vertex 5 96 5
    endloop
  endfacet
  facet normal 0 -1 0
    outer loop
      vertex 0 96 0
      vertex 11 96 3.5
      vertex 5 96 3.5
    endloop
  endfacet
  facet normal 0 -1 -0
    outer loop
      vertex 11 96 3.5
      vertex 0 96 0
      vertex 37 96 3.5
    endloop
  endfacet
  facet normal 0 -1 0
    outer loop
      vertex 48 96 0
      vertex 37 96 3.5
      vertex 0 96 0
    endloop
  endfacet
  facet normal 0 -1 0
    outer loop
      vertex 0 96 0
      vertex 5 96 3.5
      vertex 0 96 5
    endloop
  endfacet
  facet normal 0 -1 0
    outer loop
      vertex 11 96 3.5
      vertex 37 96 5
      vertex 11 96 5
    endloop
  endfacet
  facet normal 0 -1 -0
    outer loop
      vertex 37 96 5
      vertex 11 96 3.5
      vertex 37 96 3.5
    endloop
  endfacet
  facet normal 0 -1 0
    outer loop
      vertex 43 96 3.5
      vertex 48 96 5
      vertex 43 96 5
    endloop
  endfacet
  facet normal 0 -1 0
    outer loop
      vertex 43 96 3.5
      vertex 48 96 0
      vertex 48 96 5
    endloop
  endfacet
  facet normal 0 -1 0
    outer loop
      vertex 37 96 3.5
      vertex 48 96 0
      vertex 43 96 3.5
    endloop
  endfacet
  facet normal 1 -0 0
    outer loop
      vertex 1 97.5 4
      vertex 1 104.5 0
      vertex 1 104.5 4
    endloop
  endfacet
  facet normal 1 0 0
    outer loop
      vertex 1 104.5 0
      vertex 1 97.5 4
      vertex 1 97.5 0
    endloop
  endfacet
  facet normal 0 0 -1
    outer loop
      vertex 1 97.5 4
      vertex 5 104.5 4
      vertex 5 97.5 4
    endloop
  endfacet
  facet normal -0 0 -1
    outer loop
      vertex 5 104.5 4
      vertex 1 97.5 4
      vertex 1 104.5 4
    endloop
  endfacet
  facet normal 0 0 -1
    outer loop
      vertex 43 97.5 4
      vertex 47 104.5 4
      vertex 47 97.5 4
    endloop
  endfacet
  facet normal -0 0 -1
    outer loop
      vertex 47 104.5 4
      vertex 43 97.5 4
      vertex 43 104.5 4
    endloop
  endfacet
  facet normal 0 0 -1
    outer loop
      vertex 11 97.5 4
      vertex 37 104.5 4
      vertex 37 97.5 4
    endloop
  endfacet
  facet normal -0 0 -1
    outer loop
      vertex 37 104.5 4
      vertex 11 97.5 4
      vertex 11 104.5 4
    endloop
  endfacet
  facet normal -1 0 0
    outer loop
      vertex 47 97.5 0
      vertex 47 104.5 4
      vertex 47 104.5 0
    endloop
  endfacet
  facet normal -1 -0 0
    outer loop
      vertex 47 104.5 4
      vertex 47 97.5 0
      vertex 47 97.5 4
    endloop
  endfacet
  facet normal 0 1 0
    outer loop
      vertex 47 97.5 4
      vertex 43 97.5 3.5
      vertex 43 97.5 4
    endloop
  endfacet
  facet normal 0 1 0
    outer loop
      vertex 47 97.5 0
      vertex 37 97.5 3.5
      vertex 43 97.5 3.5
    endloop
  endfacet
  facet normal 0 1 0
    outer loop
      vertex 37 97.5 3.5
      vertex 47 97.5 0
      vertex 11 97.5 3.5
    endloop
  endfacet
  facet normal 0 1 0
    outer loop
      vertex 1 97.5 0
      vertex 11 97.5 3.5
      vertex 47 97.5 0
    endloop
  endfacet
  facet normal 0 1 -0
    outer loop
      vertex 47 97.5 0
      vertex 43 97.5 3.5
      vertex 47 97.5 4
    endloop
  endfacet
  facet normal 0 1 -0
    outer loop
      vertex 37 97.5 3.5
      vertex 11 97.5 4
      vertex 37 97.5 4
    endloop
  endfacet
  facet normal 0 1 0
    outer loop
      vertex 11 97.5 4
      vertex 37 97.5 3.5
      vertex 11 97.5 3.5
    endloop
  endfacet
  facet normal 0 1 -0
    outer loop
      vertex 5 97.5 3.5
      vertex 1 97.5 4
      vertex 5 97.5 4
    endloop
  endfacet
  facet normal 0 1 0
    outer loop
      vertex 5 97.5 3.5
      vertex 1 97.5 0
      vertex 1 97.5 4
    endloop
  endfacet
  facet normal 0 1 0
    outer loop
      vertex 11 97.5 3.5
      vertex 1 97.5 0
      vertex 5 97.5 3.5
    endloop
  endfacet
  facet normal 0 -1 0
    outer loop
      vertex 1 104.5 4
      vertex 5 104.5 3.5
      vertex 5 104.5 4
    endloop
  endfacet
  facet normal 0 -1 0
    outer loop
      vertex 1 104.5 0
      vertex 11 104.5 3.5
      vertex 5 104.5 3.5
    endloop
  endfacet
  facet normal 0 -1 -0
    outer loop
      vertex 11 104.5 3.5
      vertex 1 104.5 0
      vertex 37 104.5 3.5
    endloop
  endfacet
  facet normal 0 -1 0
    outer loop
      vertex 47 104.5 0
      vertex 37 104.5 3.5
      vertex 1 104.5 0
    endloop
  endfacet
  facet normal 0 -1 0
    outer loop
      vertex 1 104.5 0
      vertex 5 104.5 3.5
      vertex 1 104.5 4
    endloop
  endfacet
  facet normal 0 -1 0
    outer loop
      vertex 11 104.5 3.5
      vertex 37 104.5 4
      vertex 11 104.5 4
    endloop
  endfacet
  facet normal 0 -1 -0
    outer loop
      vertex 37 104.5 4
      vertex 11 104.5 3.5
      vertex 37 104.5 3.5
    endloop
  endfacet
  facet normal 0 -1 0
    outer loop
      vertex 43 104.5 3.5
      vertex 47 104.5 4
      vertex 43 104.5 4
    endloop
  endfacet
  facet normal 0 -1 0
    outer loop
      vertex 43 104.5 3.5
      vertex 47 104.5 0
      vertex 47 104.5 4
    endloop
  endfacet
  facet normal 0 -1 0
    outer loop
      vertex 37 104.5 3.5
      vertex 47 104.5 0
      vertex 43 104.5 3.5
    endloop
  endfacet
  facet normal -1 0 0
    outer loop
      vertex 0 128 0
      vertex 0 138 5
      vertex 0 138 0
    endloop
  endfacet
  facet normal -1 -0 0
    outer loop
      vertex 0 138 5
      vertex 0 128 0
      vertex 0 128 5
    endloop
  endfacet
  facet normal -0 0 1
    outer loop
      vertex 0 138 5
      vertex 5 128 5
      vertex 5 138 5
    endloop
  endfacet
  facet normal 0 0 1
    outer loop
      vertex 5 128 5
      vertex 0 138 5
      vertex 0 128 5
    endloop
  endfacet
  facet normal -0 0 1
    outer loop
      vertex 43 138 5
      vertex 48 128 5
      vertex 48 138 5
    endloop
  endfacet
  facet normal 0 0 1
    outer loop
      vertex 48 128 5
      vertex 43 138 5
      vertex 43 128 5
    endloop
  endfacet
  facet normal -0 0 1
    outer loop
      vertex 11 138 5
      vertex 37 128 5
      vertex 37 138 5
    endloop
  endfacet
  facet normal 0 0 1
    outer loop
      vertex 37 128 5
      vertex 11 138 5
      vertex 11 128 5
    endloop
  endfacet
  facet normal 1 -0 0
    outer loop
      vertex 48 128 5
      vertex 48 138 0
      vertex 48 138 5
    endloop
  endfacet
  facet normal 1 0 0
    outer loop
      vertex 48 138 0
      vertex 48 128 5
      vertex 48 128 0
    endloop
  endfacet
  facet normal 0 0 -1
    outer loop
      vertex 48 128 0
      vertex 47 129.5 0
      vertex 48 138 0
    endloop
  endfacet
  facet normal 0 0 -1
    outer loop
      vertex 48 128 0
      vertex 1 129.5 0
      vertex 47 129.5 0
    endloop
  endfacet
  facet normal -0 0 -1
    outer loop
      vertex 1 129.5 0
      vertex 0 128 0
      vertex 1 136.5 0
    endloop
  endfacet
  facet normal 0 0 -1
    outer loop
      vertex 0 128 0
      vertex 1 129.5 0
      vertex 48 128 0
    endloop
  endfacet
  facet normal 0 0 -1
    outer loop
      vertex 47 136.5 0
      vertex 48 138 0
      vertex 47 129.5 0
    endloop
  endfacet
  facet normal 0 0 -1
    outer loop
      vertex 1 136.5 0
      vertex 48 138 0
      vertex 47 136.5 0
    endloop
  endfacet
  facet normal 0 0 -1
    outer loop
      vertex 1 136.5 0
      vertex 0 138 0
      vertex 48 138 0
    endloop
  endfacet
  facet normal 0 0 -1
    outer loop
      vertex 0 138 0
      vertex 1 136.5 0
      vertex 0 128 0
    endloop
  endfacet
  facet normal 0 -1 0
    outer loop
      vertex 0 128 5
      vertex 5 128 3.5
      vertex 5 128 5
    endloop
  endfacet
  facet normal 0 -1 0
    outer loop
      vertex 0 128 0
      vertex 11 128 3.5
      vertex 5 128 3.5
    endloop
  endfacet
  facet normal 0 -1 -0
    outer loop
      vertex 11 128 3.5
      vertex 0 128 0
      vertex 37 128 3.5
    endloop
  endfacet
  facet normal 0 -1 0
    outer loop
      vertex 48 128 0
      vertex 37 128 3.5
      vertex 0 128 0
    endloop
  endfacet
  facet normal 0 -1 0
    outer loop
      vertex 0 128 0
      vertex 5 128 3.5
      vertex 0 128 5
    endloop
  endfacet
  facet normal 0 -1 0
    outer loop
      vertex 11 128 3.5
      vertex 37 128 5
      vertex 11 128 5
    endloop
  endfacet
  facet normal 0 -1 -0
    outer loop
      vertex 37 128 5
      vertex 11 128 3.5
      vertex 37 128 3.5
    endloop
  endfacet
  facet normal 0 -1 0
    outer loop
      vertex 43 128 3.5
      vertex 48 128 5
      vertex 43 128 5
    endloop
  endfacet
  facet normal 0 -1 0
    outer loop
      vertex 43 128 3.5
      vertex 48 128 0
      vertex 48 128 5
    endloop
  endfacet
  facet normal 0 -1 0
    outer loop
      vertex 37 128 3.5
      vertex 48 128 0
      vertex 43 128 3.5
    endloop
  endfacet
  facet normal 0 1 0
    outer loop
      vertex 11 138 7.5
      vertex 11 138 5
      vertex 7 138 7.5
    endloop
  endfacet
  facet normal 0 1 -0
    outer loop
      vertex 7 138 7.5
      vertex 5 138 11.5
      vertex 7 138 11.5
    endloop
  endfacet
  facet normal 0 1 0
    outer loop
      vertex 7 138 7.5
      vertex 5 138 5
      vertex 5 138 11.5
    endloop
  endfacet
  facet normal 0 1 0
    outer loop
      vertex 5 138 5
      vertex 7 138 7.5
      vertex 11 138 5
    endloop
  endfacet
  facet normal 0 1 -0
    outer loop
      vertex 48 138 0
      vertex 43 138 5
      vertex 48 138 5
    endloop
  endfacet
  facet normal 0 1 0
    outer loop
      vertex 43 138 5
      vertex 48 138 0
      vertex 37 138 5
    endloop
  endfacet
  facet normal 0 1 0
    outer loop
      vertex 37 138 5
      vertex 48 138 0
      vertex 11 138 5
    endloop
  endfacet
  facet normal 0 1 0
    outer loop
      vertex 0 138 0
      vertex 11 138 5
      vertex 48 138 0
    endloop
  endfacet
  facet normal 0 1 0
    outer loop
      vertex 11 138 5
      vertex 0 138 0
      vertex 5 138 5
    endloop
  endfacet
  facet normal 0 1 0
    outer loop
      vertex 5 138 5
      vertex 0 138 0
      vertex 0 138 5
    endloop
  endfacet
  facet normal 0 1 0
    outer loop
      vertex 43 138 11.5
      vertex 41 138 7.5
      vertex 41 138 11.5
    endloop
  endfacet
  facet normal 0 1 -0
    outer loop
      vertex 43 138 5
      vertex 41 138 7.5
      vertex 43 138 11.5
    endloop
  endfacet
  facet normal 0 1 0
    outer loop
      vertex 37 138 5
      vertex 41 138 7.5
      vertex 43 138 5
    endloop
  endfacet
  facet normal 0 1 0
    outer loop
      vertex 41 138 7.5
      vertex 37 138 5
      vertex 37 138 7.5
    endloop
  endfacet
  facet normal 1 -0 0
    outer loop
      vertex 1 129.5 4
      vertex 1 136.5 0
      vertex 1 136.5 4
    endloop
  endfacet
  facet normal 1 0 0
    outer loop
      vertex 1 136.5 0
      vertex 1 129.5 4
      vertex 1 129.5 0
    endloop
  endfacet
  facet normal 0 0 -1
    outer loop
      vertex 1 129.5 4
      vertex 5 136.5 4
      vertex 5 129.5 4
    endloop
  endfacet
  facet normal -0 0 -1
    outer loop
      vertex 5 136.5 4
      vertex 1 129.5 4
      vertex 1 136.5 4
    endloop
  endfacet
  facet normal 0 0 -1
    outer loop
      vertex 43 129.5 4
      vertex 47 136.5 4
      vertex 47 129.5 4
    endloop
  endfacet
  facet normal -0 0 -1
    outer loop
      vertex 47 136.5 4
      vertex 43 129.5 4
      vertex 43 136.5 4
    endloop
  endfacet
  facet normal 0 0 -1
    outer loop
      vertex 11 129.5 4
      vertex 37 136.5 4
      vertex 37 129.5 4
    endloop
  endfacet
  facet normal -0 0 -1
    outer loop
      vertex 37 136.5 4
      vertex 11 129.5 4
      vertex 11 136.5 4
    endloop
  endfacet
  facet normal -1 0 0
    outer loop
      vertex 47 129.5 0
      vertex 47 136.5 4
      vertex 47 136.5 0
    endloop
  endfacet
  facet normal -1 -0 0
    outer loop
      vertex 47 136.5 4
      vertex 47 129.5 0
      vertex 47 129.5 4
    endloop
  endfacet
  facet normal 0 -1 0
    outer loop
      vertex 1 136.5 4
      vertex 5 136.5 3.5
      vertex 5 136.5 4
    endloop
  endfacet
  facet normal 0 -1 0
    outer loop
      vertex 1 136.5 0
      vertex 11 136.5 3.5
      vertex 5 136.5 3.5
    endloop
  endfacet
  facet normal 0 -1 -0
    outer loop
      vertex 11 136.5 3.5
      vertex 1 136.5 0
      vertex 37 136.5 3.5
    endloop
  endfacet
  facet normal 0 -1 0
    outer loop
      vertex 47 136.5 0
      vertex 37 136.5 3.5
      vertex 1 136.5 0
    endloop
  endfacet
  facet normal 0 -1 0
    outer loop
      vertex 1 136.5 0
      vertex 5 136.5 3.5
      vertex 1 136.5 4
    endloop
  endfacet
  facet normal 0 -1 0
    outer loop
      vertex 11 136.5 3.5
      vertex 37 136.5 4
      vertex 11 136.5 4
    endloop
  endfacet
  facet normal 0 -1 -0
    outer loop
      vertex 37 136.5 4
      vertex 11 136.5 3.5
      vertex 37 136.5 3.5
    endloop
  endfacet
  facet normal 0 -1 0
    outer loop
      vertex 43 136.5 3.5
      vertex 47 136.5 4
      vertex 43 136.5 4
    endloop
  endfacet
  facet normal 0 -1 0
    outer loop
      vertex 43 136.5 3.5
      vertex 47 136.5 0
      vertex 47 136.5 4
    endloop
  endfacet
  facet normal 0 -1 0
    outer loop
      vertex 37 136.5 3.5
      vertex 47 136.5 0
      vertex 43 136.5 3.5
    endloop
  endfacet
  facet normal 0 1 0
    outer loop
      vertex 47 129.5 4
      vertex 43 129.5 3.5
      vertex 43 129.5 4
    endloop
  endfacet
  facet normal 0 1 0
    outer loop
      vertex 47 129.5 0
      vertex 37 129.5 3.5
      vertex 43 129.5 3.5
    endloop
  endfacet
  facet normal 0 1 0
    outer loop
      vertex 37 129.5 3.5
      vertex 47 129.5 0
      vertex 11 129.5 3.5
    endloop
  endfacet
  facet normal 0 1 0
    outer loop
      vertex 1 129.5 0
      vertex 11 129.5 3.5
      vertex 47 129.5 0
    endloop
  endfacet
  facet normal 0 1 -0
    outer loop
      vertex 47 129.5 0
      vertex 43 129.5 3.5
      vertex 47 129.5 4
    endloop
  endfacet
  facet normal 0 1 -0
    outer loop
      vertex 37 129.5 3.5
      vertex 11 129.5 4
      vertex 37 129.5 4
    endloop
  endfacet
  facet normal 0 1 0
    outer loop
      vertex 11 129.5 4
      vertex 37 129.5 3.5
      vertex 11 129.5 3.5
    endloop
  endfacet
  facet normal 0 1 -0
    outer loop
      vertex 5 129.5 3.5
      vertex 1 129.5 4
      vertex 5 129.5 4
    endloop
  endfacet
  facet normal 0 1 0
    outer loop
      vertex 5 129.5 3.5
      vertex 1 129.5 0
      vertex 1 129.5 4
    endloop
  endfacet
  facet normal 0 1 0
    outer loop
      vertex 11 129.5 3.5
      vertex 1 129.5 0
      vertex 5 129.5 3.5
    endloop
  endfacet
  facet normal -1 0 0
    outer loop
      vertex 5 32 3.5
      vertex 5 10 3.5
      vertex 5 32 5
    endloop
  endfacet
  facet normal -1 0 0
    outer loop
      vertex 5 64 3.5
      vertex 5 42 3.5
      vertex 5 64 5
    endloop
  endfacet
  facet normal -1 0 0
    outer loop
      vertex 5 96 3.5
      vertex 5 74 3.5
      vertex 5 96 5
    endloop
  endfacet
  facet normal -1 0 0
    outer loop
      vertex 5 128 3.5
      vertex 5 106 3.5
      vertex 5 128 5
    endloop
  endfacet
  facet normal -1 0 0
    outer loop
      vertex 5 128 5
      vertex 5 138 11.5
      vertex 5 138 5
    endloop
  endfacet
  facet normal -1 0 0
    outer loop
      vertex 5 106 5
      vertex 5 128 5
      vertex 5 106 3.5
    endloop
  endfacet
  facet normal -1 0 0
    outer loop
      vertex 5 128 5
      vertex 5 106 5
      vertex 5 138 11.5
    endloop
  endfacet
  facet normal -1 0 0
    outer loop
      vertex 5 96 5
      vertex 5 138 11.5
      vertex 5 106 5
    endloop
  endfacet
  facet normal -1 0 0
    outer loop
      vertex 5 74 5
      vertex 5 96 5
      vertex 5 74 3.5
    endloop
  endfacet
  facet normal -1 0 0
    outer loop
      vertex 5 96 5
      vertex 5 74 5
      vertex 5 138 11.5
    endloop
  endfacet
  facet normal -1 0 0
    outer loop
      vertex 5 64 5
      vertex 5 138 11.5
      vertex 5 74 5
    endloop
  endfacet
  facet normal -1 0 0
    outer loop
      vertex 5 42 5
      vertex 5 64 5
      vertex 5 42 3.5
    endloop
  endfacet
  facet normal -1 0 0
    outer loop
      vertex 5 0 11.5
      vertex 5 64 5
      vertex 5 42 5
    endloop
  endfacet
  facet normal -1 0 0
    outer loop
      vertex 5 0 11.5
      vertex 5 42 5
      vertex 5 32 5
    endloop
  endfacet
  facet normal -1 0 0
    outer loop
      vertex 5 10 5
      vertex 5 32 5
      vertex 5 10 3.5
    endloop
  endfacet
  facet normal -1 0 0
    outer loop
      vertex 5 0 11.5
      vertex 5 32 5
      vertex 5 10 5
    endloop
  endfacet
  facet normal -1 0 0
    outer loop
      vertex 5 0 11.5
      vertex 5 10 5
      vertex 5 0 5
    endloop
  endfacet
  facet normal -1 0 0
    outer loop
      vertex 5 64 5
      vertex 5 0 11.5
      vertex 5 138 11.5
    endloop
  endfacet
  facet normal -1 0 0
    outer loop
      vertex 5 1.5 3.5
      vertex 5 8.5 4
      vertex 5 8.5 3.5
    endloop
  endfacet
  facet normal -1 -0 0
    outer loop
      vertex 5 8.5 4
      vertex 5 1.5 3.5
      vertex 5 1.5 4
    endloop
  endfacet
  facet normal -1 0 0
    outer loop
      vertex 5 33.5 3.5
      vertex 5 40.5 4
      vertex 5 40.5 3.5
    endloop
  endfacet
  facet normal -1 -0 0
    outer loop
      vertex 5 40.5 4
      vertex 5 33.5 3.5
      vertex 5 33.5 4
    endloop
  endfacet
  facet normal -1 0 0
    outer loop
      vertex 5 65.5 3.5
      vertex 5 72.5 4
      vertex 5 72.5 3.5
    endloop
  endfacet
  facet normal -1 -0 0
    outer loop
      vertex 5 72.5 4
      vertex 5 65.5 3.5
      vertex 5 65.5 4
    endloop
  endfacet
  facet normal -1 0 0
    outer loop
      vertex 5 97.5 3.5
      vertex 5 104.5 4
      vertex 5 104.5 3.5
    endloop
  endfacet
  facet normal -1 -0 0
    outer loop
      vertex 5 104.5 4
      vertex 5 97.5 3.5
      vertex 5 97.5 4
    endloop
  endfacet
  facet normal -1 0 0
    outer loop
      vertex 5 129.5 3.5
      vertex 5 136.5 4
      vertex 5 136.5 3.5
    endloop
  endfacet
  facet normal -1 -0 0
    outer loop
      vertex 5 136.5 4
      vertex 5 129.5 3.5
      vertex 5 129.5 4
    endloop
  endfacet
  facet normal -0 0 1
    outer loop
      vertex 5 138 11.5
      vertex 7 0 11.5
      vertex 7 138 11.5
    endloop
  endfacet
  facet normal 0 0 1
    outer loop
      vertex 7 0 11.5
      vertex 5 138 11.5
      vertex 5 0 11.5
    endloop
  endfacet
  facet normal 1 -0 0
    outer loop
      vertex 7 0 11.5
      vertex 7 138 7.5
      vertex 7 138 11.5
    endloop
  endfacet
  facet normal 1 0 0
    outer loop
      vertex 7 138 7.5
      vertex 7 0 11.5
      vertex 7 0 7.5
    endloop
  endfacet
  facet normal 0 0 -1
    outer loop
      vertex 5 10 3.5
      vertex 11 32 3.5
      vertex 11 10 3.5
    endloop
  endfacet
  facet normal -0 0 -1
    outer loop
      vertex 11 32 3.5
      vertex 5 10 3.5
      vertex 5 32 3.5
    endloop
  endfacet
  facet normal 0 0 -1
    outer loop
      vertex 5 42 3.5
      vertex 11 64 3.5
      vertex 11 42 3.5
    endloop
  endfacet
  facet normal -0 0 -1
    outer loop
      vertex 11 64 3.5
      vertex 5 42 3.5
      vertex 5 64 3.5
    endloop
  endfacet
  facet normal 0 0 -1
    outer loop
      vertex 5 74 3.5
      vertex 11 96 3.5
      vertex 11 74 3.5
    endloop
  endfacet
  facet normal -0 0 -1
    outer loop
      vertex 11 96 3.5
      vertex 5 74 3.5
      vertex 5 96 3.5
    endloop
  endfacet
  facet normal 0 0 -1
    outer loop
      vertex 5 106 3.5
      vertex 11 128 3.5
      vertex 11 106 3.5
    endloop
  endfacet
  facet normal -0 0 -1
    outer loop
      vertex 11 128 3.5
      vertex 5 106 3.5
      vertex 5 128 3.5
    endloop
  endfacet
  facet normal 0 0 -1
    outer loop
      vertex 5 1.5 3.5
      vertex 11 8.5 3.5
      vertex 11 1.5 3.5
    endloop
  endfacet
  facet normal -0 0 -1
    outer loop
      vertex 11 8.5 3.5
      vertex 5 1.5 3.5
      vertex 5 8.5 3.5
    endloop
  endfacet
  facet normal 0 0 -1
    outer loop
      vertex 5 33.5 3.5
      vertex 11 40.5 3.5
      vertex 11 33.5 3.5
    endloop
  endfacet
  facet normal -0 0 -1
    outer loop
      vertex 11 40.5 3.5
      vertex 5 33.5 3.5
      vertex 5 40.5 3.5
    endloop
  endfacet
  facet normal 0 0 -1
    outer loop
      vertex 5 65.5 3.5
      vertex 11 72.5 3.5
      vertex 11 65.5 3.5
    endloop
  endfacet
  facet normal -0 0 -1
    outer loop
      vertex 11 72.5 3.5
      vertex 5 65.5 3.5
      vertex 5 72.5 3.5
    endloop
  endfacet
  facet normal 0 0 -1
    outer loop
      vertex 5 97.5 3.5
      vertex 11 104.5 3.5
      vertex 11 97.5 3.5
    endloop
  endfacet
  facet normal -0 0 -1
    outer loop
      vertex 11 104.5 3.5
      vertex 5 97.5 3.5
      vertex 5 104.5 3.5
    endloop
  endfacet
  facet normal 0 0 -1
    outer loop
      vertex 5 129.5 3.5
      vertex 11 136.5 3.5
      vertex 11 129.5 3.5
    endloop
  endfacet
  facet normal -0 0 -1
    outer loop
      vertex 11 136.5 3.5
      vertex 5 129.5 3.5
      vertex 5 136.5 3.5
    endloop
  endfacet
  facet normal -0 0 1
    outer loop
      vertex 7 138 7.5
      vertex 11 0 7.5
      vertex 11 138 7.5
    endloop
  endfacet
  facet normal 0 0 1
    outer loop
      vertex 11 0 7.5
      vertex 7 138 7.5
      vertex 7 0 7.5
    endloop
  endfacet
  facet normal 1 0 0
    outer loop
      vertex 11 138 7.5
      vertex 11 128 5
      vertex 11 138 5
    endloop
  endfacet
  facet normal 1 0 0
    outer loop
      vertex 11 128 5
      vertex 11 106 5
      vertex 11 128 3.5
    endloop
  endfacet
  facet normal 1 0 0
    outer loop
      vertex 11 138 7.5
      vertex 11 106 5
      vertex 11 128 5
    endloop
  endfacet
  facet normal 1 0 0
    outer loop
      vertex 11 138 7.5
      vertex 11 96 5
      vertex 11 106 5
    endloop
  endfacet
  facet normal 1 0 0
    outer loop
      vertex 11 96 5
      vertex 11 74 5
      vertex 11 96 3.5
    endloop
  endfacet
  facet normal 1 0 0
    outer loop
      vertex 11 138 7.5
      vertex 11 74 5
      vertex 11 96 5
    endloop
  endfacet
  facet normal 1 0 0
    outer loop
      vertex 11 138 7.5
      vertex 11 64 5
      vertex 11 74 5
    endloop
  endfacet
  facet normal 1 0 0
    outer loop
      vertex 11 64 5
      vertex 11 42 5
      vertex 11 64 3.5
    endloop
  endfacet
  facet normal 1 -0 0
    outer loop
      vertex 11 0 7.5
      vertex 11 64 5
      vertex 11 138 7.5
    endloop
  endfacet
  facet normal 1 0 0
    outer loop
      vertex 11 64 5
      vertex 11 0 7.5
      vertex 11 42 5
    endloop
  endfacet
  facet normal 1 0 0
    outer loop
      vertex 11 32 5
      vertex 11 10 5
      vertex 11 32 3.5
    endloop
  endfacet
  facet normal 1 0 0
    outer loop
      vertex 11 42 5
      vertex 11 0 7.5
      vertex 11 32 5
    endloop
  endfacet
  facet normal 1 0 0
    outer loop
      vertex 11 32 5
      vertex 11 0 7.5
      vertex 11 10 5
    endloop
  endfacet
  facet normal 1 0 0
    outer loop
      vertex 11 10 5
      vertex 11 0 7.5
      vertex 11 0 5
    endloop
  endfacet
  facet normal 1 0 0
    outer loop
      vertex 11 128 3.5
      vertex 11 106 5
      vertex 11 106 3.5
    endloop
  endfacet
  facet normal 1 0 0
    outer loop
      vertex 11 96 3.5
      vertex 11 74 5
      vertex 11 74 3.5
    endloop
  endfacet
  facet normal 1 0 0
    outer loop
      vertex 11 64 3.5
      vertex 11 42 5
      vertex 11 42 3.5
    endloop
  endfacet
  facet normal 1 0 0
    outer loop
      vertex 11 32 3.5
      vertex 11 10 5
      vertex 11 10 3.5
    endloop
  endfacet
  facet normal 1 -0 0
    outer loop
      vertex 11 1.5 4
      vertex 11 8.5 3.5
      vertex 11 8.5 4
    endloop
  endfacet
  facet normal 1 0 0
    outer loop
      vertex 11 8.5 3.5
      vertex 11 1.5 4
      vertex 11 1.5 3.5
    endloop
  endfacet
  facet normal 1 -0 0
    outer loop
      vertex 11 33.5 4
      vertex 11 40.5 3.5
      vertex 11 40.5 4
    endloop
  endfacet
  facet normal 1 0 0
    outer loop
      vertex 11 40.5 3.5
      vertex 11 33.5 4
      vertex 11 33.5 3.5
    endloop
  endfacet
  facet normal 1 -0 0
    outer loop
      vertex 11 65.5 4
      vertex 11 72.5 3.5
      vertex 11 72.5 4
    endloop
  endfacet
  facet normal 1 0 0
    outer loop
      vertex 11 72.5 3.5
      vertex 11 65.5 4
      vertex 11 65.5 3.5
    endloop
  endfacet
  facet normal 1 -0 0
    outer loop
      vertex 11 97.5 4
      vertex 11 104.5 3.5
      vertex 11 104.5 4
    endloop
  endfacet
  facet normal 1 0 0
    outer loop
      vertex 11 104.5 3.5
      vertex 11 97.5 4
      vertex 11 97.5 3.5
    endloop
  endfacet
  facet normal 1 -0 0
    outer loop
      vertex 11 129.5 4
      vertex 11 136.5 3.5
      vertex 11 136.5 4
    endloop
  endfacet
  facet normal 1 0 0
    outer loop
      vertex 11 136.5 3.5
      vertex 11 129.5 4
      vertex 11 129.5 3.5
    endloop
  endfacet
  facet normal -1 0 0
    outer loop
      vertex 41 0 7.5
      vertex 41 138 11.5
      vertex 41 138 7.5
    endloop
  endfacet
  facet normal -1 -0 0
    outer loop
      vertex 41 138 11.5
      vertex 41 0 7.5
      vertex 41 0 11.5
    endloop
  endfacet
  facet normal -0 0 1
    outer loop
      vertex 41 138 11.5
      vertex 43 0 11.5
      vertex 43 138 11.5
    endloop
  endfacet
  facet normal 0 0 1
    outer loop
      vertex 43 0 11.5
      vertex 41 138 11.5
      vertex 41 0 11.5
    endloop
  endfacet
  facet normal 1 0 0
    outer loop
      vertex 43 138 11.5
      vertex 43 128 5
      vertex 43 138 5
    endloop
  endfacet
  facet normal 1 0 0
    outer loop
      vertex 43 128 5
      vertex 43 106 5
      vertex 43 128 3.5
    endloop
  endfacet
  facet normal 1 0 0
    outer loop
      vertex 43 138 11.5
      vertex 43 106 5
      vertex 43 128 5
    endloop
  endfacet
  facet normal 1 0 0
    outer loop
      vertex 43 138 11.5
      vertex 43 96 5
      vertex 43 106 5
    endloop
  endfacet
  facet normal 1 0 0
    outer loop
      vertex 43 96 5
      vertex 43 74 5
      vertex 43 96 3.5
    endloop
  endfacet
  facet normal 1 0 0
    outer loop
      vertex 43 138 11.5
      vertex 43 74 5
      vertex 43 96 5
    endloop
  endfacet
  facet normal 1 0 0
    outer loop
      vertex 43 138 11.5
      vertex 43 64 5
      vertex 43 74 5
    endloop
  endfacet
  facet normal 1 0 0
    outer loop
      vertex 43 64 5
      vertex 43 42 5
      vertex 43 64 3.5
    endloop
  endfacet
  facet normal 1 -0 0
    outer loop
      vertex 43 0 11.5
      vertex 43 64 5
      vertex 43 138 11.5
    endloop
  endfacet
  facet normal 1 0 0
    outer loop
      vertex 43 64 5
      vertex 43 0 11.5
      vertex 43 42 5
    endloop
  endfacet
  facet normal 1 0 0
    outer loop
      vertex 43 32 5
      vertex 43 10 5
      vertex 43 32 3.5
    endloop
  endfacet
  facet normal 1 0 0
    outer loop
      vertex 43 42 5
      vertex 43 0 11.5
      vertex 43 32 5
    endloop
  endfacet
  facet normal 1 0 0
    outer loop
      vertex 43 32 5
      vertex 43 0 11.5
      vertex 43 10 5
    endloop
  endfacet
  facet normal 1 0 0
    outer loop
      vertex 43 10 5
      vertex 43 0 11.5
      vertex 43 0 5
    endloop
  endfacet
  facet normal 1 0 0
    outer loop
      vertex 43 128 3.5
      vertex 43 106 5
      vertex 43 106 3.5
    endloop
  endfacet
  facet normal 1 0 0
    outer loop
      vertex 43 96 3.5
      vertex 43 74 5
      vertex 43 74 3.5
    endloop
  endfacet
  facet normal 1 0 0
    outer loop
      vertex 43 64 3.5
      vertex 43 42 5
      vertex 43 42 3.5
    endloop
  endfacet
  facet normal 1 0 0
    outer loop
      vertex 43 32 3.5
      vertex 43 10 5
      vertex 43 10 3.5
    endloop
  endfacet
  facet normal 1 -0 0
    outer loop
      vertex 43 1.5 4
      vertex 43 8.5 3.5
      vertex 43 8.5 4
    endloop
  endfacet
  facet normal 1 0 0
    outer loop
      vertex 43 8.5 3.5
      vertex 43 1.5 4
      vertex 43 1.5 3.5
    endloop
  endfacet
  facet normal 1 -0 0
    outer loop
      vertex 43 33.5 4
      vertex 43 40.5 3.5
      vertex 43 40.5 4
    endloop
  endfacet
  facet normal 1 0 0
    outer loop
      vertex 43 40.5 3.5
      vertex 43 33.5 4
      vertex 43 33.5 3.5
    endloop
  endfacet
  facet normal 1 -0 0
    outer loop
      vertex 43 65.5 4
      vertex 43 72.5 3.5
      vertex 43 72.5 4
    endloop
  endfacet
  facet normal 1 0 0
    outer loop
      vertex 43 72.5 3.5
      vertex 43 65.5 4
      vertex 43 65.5 3.5
    endloop
  endfacet
  facet normal 1 -0 0
    outer loop
      vertex 43 97.5 4
      vertex 43 104.5 3.5
      vertex 43 104.5 4
    endloop
  endfacet
  facet normal 1 0 0
    outer loop
      vertex 43 104.5 3.5
      vertex 43 97.5 4
      vertex 43 97.5 3.5
    endloop
  endfacet
  facet normal 1 -0 0
    outer loop
      vertex 43 129.5 4
      vertex 43 136.5 3.5
      vertex 43 136.5 4
    endloop
  endfacet
  facet normal 1 0 0
    outer loop
      vertex 43 136.5 3.5
      vertex 43 129.5 4
      vertex 43 129.5 3.5
    endloop
  endfacet
  facet normal 0 0 -1
    outer loop
      vertex 37 10 3.5
      vertex 43 32 3.5
      vertex 43 10 3.5
    endloop
  endfacet
  facet normal -0 0 -1
    outer loop
      vertex 43 32 3.5
      vertex 37 10 3.5
      vertex 37 32 3.5
    endloop
  endfacet
  facet normal 0 0 -1
    outer loop
      vertex 37 42 3.5
      vertex 43 64 3.5
      vertex 43 42 3.5
    endloop
  endfacet
  facet normal -0 0 -1
    outer loop
      vertex 43 64 3.5
      vertex 37 42 3.5
      vertex 37 64 3.5
    endloop
  endfacet
  facet normal 0 0 -1
    outer loop
      vertex 37 74 3.5
      vertex 43 96 3.5
      vertex 43 74 3.5
    endloop
  endfacet
  facet normal -0 0 -1
    outer loop
      vertex 43 96 3.5
      vertex 37 74 3.5
      vertex 37 96 3.5
    endloop
  endfacet
  facet normal 0 0 -1
    outer loop
      vertex 37 106 3.5
      vertex 43 128 3.5
      vertex 43 106 3.5
    endloop
  endfacet
  facet normal -0 0 -1
    outer loop
      vertex 43 128 3.5
      vertex 37 106 3.5
      vertex 37 128 3.5
    endloop
  endfacet
  facet normal 0 0 -1
    outer loop
      vertex 37 1.5 3.5
      vertex 43 8.5 3.5
      vertex 43 1.5 3.5
    endloop
  endfacet
  facet normal -0 0 -1
    outer loop
      vertex 43 8.5 3.5
      vertex 37 1.5 3.5
      vertex 37 8.5 3.5
    endloop
  endfacet
  facet normal 0 0 -1
    outer loop
      vertex 37 33.5 3.5
      vertex 43 40.5 3.5
      vertex 43 33.5 3.5
    endloop
  endfacet
  facet normal -0 0 -1
    outer loop
      vertex 43 40.5 3.5
      vertex 37 33.5 3.5
      vertex 37 40.5 3.5
    endloop
  endfacet
  facet normal 0 0 -1
    outer loop
      vertex 37 65.5 3.5
      vertex 43 72.5 3.5
      vertex 43 65.5 3.5
    endloop
  endfacet
  facet normal -0 0 -1
    outer loop
      vertex 43 72.5 3.5
      vertex 37 65.5 3.5
      vertex 37 72.5 3.5
    endloop
  endfacet
  facet normal 0 0 -1
    outer loop
      vertex 37 97.5 3.5
      vertex 43 104.5 3.5
      vertex 43 97.5 3.5
    endloop
  endfacet
  facet normal -0 0 -1
    outer loop
      vertex 43 104.5 3.5
      vertex 37 97.5 3.5
      vertex 37 104.5 3.5
    endloop
  endfacet
  facet normal 0 0 -1
    outer loop
      vertex 37 129.5 3.5
      vertex 43 136.5 3.5
      vertex 43 129.5 3.5
    endloop
  endfacet
  facet normal -0 0 -1
    outer loop
      vertex 43 136.5 3.5
      vertex 37 129.5 3.5
      vertex 37 136.5 3.5
    endloop
  endfacet
  facet normal -1 0 0
    outer loop
      vertex 37 32 3.5
      vertex 37 10 3.5
      vertex 37 32 5
    endloop
  endfacet
  facet normal -1 0 0
    outer loop
      vertex 37 64 3.5
      vertex 37 42 3.5
      vertex 37 64 5
    endloop
  endfacet
  facet normal -1 0 0
    outer loop
      vertex 37 96 3.5
      vertex 37 74 3.5
      vertex 37 96 5
    endloop
  endfacet
  facet normal -1 0 0
    outer loop
      vertex 37 128 3.5
      vertex 37 106 3.5
      vertex 37 128 5
    endloop
  endfacet
  facet normal -1 0 0
    outer loop
      vertex 37 128 5
      vertex 37 138 7.5
      vertex 37 138 5
    endloop
  endfacet
  facet normal -1 0 0
    outer loop
      vertex 37 106 5
      vertex 37 128 5
      vertex 37 106 3.5
    endloop
  endfacet
  facet normal -1 0 0
    outer loop
      vertex 37 128 5
      vertex 37 106 5
      vertex 37 138 7.5
    endloop
  endfacet
  facet normal -1 0 0
    outer loop
      vertex 37 96 5
      vertex 37 138 7.5
      vertex 37 106 5
    endloop
  endfacet
  facet normal -1 0 0
    outer loop
      vertex 37 74 5
      vertex 37 96 5
      vertex 37 74 3.5
    endloop
  endfacet
  facet normal -1 0 0
    outer loop
      vertex 37 74 5
      vertex 37 138 7.5
      vertex 37 96 5
    endloop
  endfacet
  facet normal -1 0 0
    outer loop
      vertex 37 64 5
      vertex 37 138 7.5
      vertex 37 74 5
    endloop
  endfacet
  facet normal -1 0 0
    outer loop
      vertex 37 42 5
      vertex 37 64 5
      vertex 37 42 3.5
    endloop
  endfacet
  facet normal -1 0 0
    outer loop
      vertex 37 0 7.5
      vertex 37 64 5
      vertex 37 42 5
    endloop
  endfacet
  facet normal -1 0 0
    outer loop
      vertex 37 0 7.5
      vertex 37 42 5
      vertex 37 32 5
    endloop
  endfacet
  facet normal -1 0 0
    outer loop
      vertex 37 10 5
      vertex 37 32 5
      vertex 37 10 3.5
    endloop
  endfacet
  facet normal -1 0 0
    outer loop
      vertex 37 0 7.5
      vertex 37 32 5
      vertex 37 10 5
    endloop
  endfacet
  facet normal -1 0 0
    outer loop
      vertex 37 0 7.5
      vertex 37 10 5
      vertex 37 0 5
    endloop
  endfacet
  facet normal -1 0 0
    outer loop
      vertex 37 64 5
      vertex 37 0 7.5
      vertex 37 138 7.5
    endloop
  endfacet
  facet normal -1 0 0
    outer loop
      vertex 37 1.5 3.5
      vertex 37 8.5 4
      vertex 37 8.5 3.5
    endloop
  endfacet
  facet normal -1 -0 0
    outer loop
      vertex 37 8.5 4
      vertex 37 1.5 3.5
      vertex 37 1.5 4
    endloop
  endfacet
  facet normal -1 0 0
    outer loop
      vertex 37 33.5 3.5
      vertex 37 40.5 4
      vertex 37 40.5 3.5
    endloop
  endfacet
  facet normal -1 -0 0
    outer loop
      vertex 37 40.5 4
      vertex 37 33.5 3.5
      vertex 37 33.5 4
    endloop
  endfacet
  facet normal -1 0 0
    outer loop
      vertex 37 65.5 3.5
      vertex 37 72.5 4
      vertex 37 72.5 3.5
    endloop
  endfacet
  facet normal -1 -0 0
    outer loop
      vertex 37 72.5 4
      vertex 37 65.5 3.5
      vertex 37 65.5 4
    endloop
  endfacet
  facet normal -1 0 0
    outer loop
      vertex 37 97.5 3.5
      vertex 37 104.5 4
      vertex 37 104.5 3.5
    endloop
  endfacet
  facet normal -1 -0 0
    outer loop
      vertex 37 104.5 4
      vertex 37 97.5 3.5
      vertex 37 97.5 4
    endloop
  endfacet
  facet normal -1 0 0
    outer loop
      vertex 37 129.5 3.5
      vertex 37 136.5 4
      vertex 37 136.5 3.5
    endloop
  endfacet
  facet normal -1 -0 0
    outer loop
      vertex 37 136.5 4
      vertex 37 129.5 3.5
      vertex 37 129.5 4
    endloop
  endfacet
  facet normal -0 0 1
    outer loop
      vertex 37 138 7.5
      vertex 41 0 7.5
      vertex 41 138 7.5
    endloop
  endfacet
  facet normal 0 0 1
    outer loop
      vertex 41 0 7.5
      vertex 37 138 7.5
      vertex 37 0 7.5
    endloop
  endfacet
endsolid OpenSCAD_Model
